<svg xmlns="http://www.w3.org/2000/svg" width="36" height="37" viewBox="0 0 36 37"><defs><style>.a{fill:#7ed7f3;}.b{fill:#fff;}</style></defs><g transform="translate(-0.041 0)"><ellipse class="a" cx="18" cy="18.5" rx="18" ry="18.5" transform="translate(0.041 0)"/><path class="b" d="M10.574,1.726V2.805c0,.951-2.368,1.726-5.287,1.726S0,3.756,0,2.805V1.726C0,.776,2.368,0,5.287,0S10.574.776,10.574,1.726Zm0,2.428V6.582c0,.951-2.368,1.726-5.287,1.726S0,7.533,0,6.582V4.154A10.207,10.207,0,0,0,5.287,5.3,10.207,10.207,0,0,0,10.574,4.154Zm0,3.776v2.428c0,.951-2.368,1.726-5.287,1.726S0,11.309,0,10.358V7.931A10.207,10.207,0,0,0,5.287,9.077,10.207,10.207,0,0,0,10.574,7.931Z" transform="translate(12.8 12.17)"/></g></svg>