<svg xmlns="http://www.w3.org/2000/svg" width="36" height="37" viewBox="0 0 36 37"><defs><style>.a{fill:#ffa365;}.b{fill:#fff;}</style></defs><g transform="translate(0.122 0)"><ellipse class="a" cx="18" cy="18.5" rx="18" ry="18.5" transform="translate(-0.122 0)"/><path class="b" d="M11.635,14.237v-.623a3.373,3.373,0,0,0,1.511-2.807c0-1.877,0-3.4-2.266-3.4s-2.266,1.522-2.266,3.4a3.373,3.373,0,0,0,1.511,2.807v.623c-2.562.209-4.532,1.468-4.532,2.99H16.167c0-1.522-1.97-2.781-4.532-2.99Zm-5.2.292a7.176,7.176,0,0,1,2.358-.949,4.261,4.261,0,0,1-.478-.7,4.325,4.325,0,0,1-.549-2.076,6.706,6.706,0,0,1,.361-2.759A2.459,2.459,0,0,1,10,6.639c-.2-.9-.731-1.5-2.146-1.5-2.266,0-2.266,1.522-2.266,3.4A3.373,3.373,0,0,0,7.1,11.348v.623c-2.562.209-4.532,1.468-4.532,2.99H5.864A4.838,4.838,0,0,1,6.433,14.529Z" transform="translate(9.212 7.099)"/></g></svg>