<svg xmlns="http://www.w3.org/2000/svg" width="62" height="62" viewBox="0 0 62 62"><defs><style>.a,.b{fill:#ff8f0e;}.a{opacity:0.1;}</style></defs><g transform="translate(-264 -257)"><circle class="a" cx="31" cy="31" r="31" transform="translate(264 257)"/><g transform="translate(283.917 277.616)"><path class="b" d="M21.7,11.25H6.464a3.091,3.091,0,0,0-3.089,3.089v8.649a3.091,3.091,0,0,0,3.089,3.089H21.7a3.091,3.091,0,0,0,3.089-3.089V14.339A3.091,3.091,0,0,0,21.7,11.25Z" transform="translate(-3.375 -6.307)"/><path class="b" d="M18.858,4.551,6.765,6.914C5.839,7.12,4.5,8.052,4.5,9.185a3.244,3.244,0,0,1,2.523-.978H21.8V7.151a2.956,2.956,0,0,0-.716-1.936h0A2.435,2.435,0,0,0,18.858,4.551Z" transform="translate(-3.676 -4.499)"/></g></g></svg>