<svg xmlns="http://www.w3.org/2000/svg" width="773" height="562" viewBox="0 0 773 562"><defs><style>.a{fill:#f6f6f6;}.b{fill:#f2f9fc;}.c{fill:#fefefe;}</style></defs><g transform="translate(70 -416)"><g transform="translate(24 -23)"><circle class="a" cx="78.5" cy="78.5" r="78.5" transform="translate(-52 473)"/><circle class="a" cx="78.5" cy="78.5" r="78.5" transform="translate(37 556)"/><circle class="a" cx="52.5" cy="52.5" r="52.5" transform="translate(157 591)"/><circle class="a" cx="52.5" cy="52.5" r="52.5" transform="translate(329 758)"/><circle class="a" cx="57.5" cy="57.5" r="57.5" transform="translate(417 738)"/><circle class="a" cx="57.5" cy="57.5" r="57.5" transform="translate(523 766)"/><circle class="a" cx="94" cy="94" r="94" transform="translate(194 649)"/><path class="a" d="M3657,3803v390h628l-116-115-176-26-188-181Z" transform="translate(-3682 -3256)"/></g><g transform="translate(-487 -322)"><circle class="b" cx="57.5" cy="57.5" r="57.5" transform="translate(417 738)"/><circle class="b" cx="57.5" cy="57.5" r="57.5" transform="translate(480 785)"/></g><g transform="translate(321 141)"><circle class="b" cx="78.5" cy="78.5" r="78.5" transform="translate(-52 473)"/><circle class="b" cx="78.5" cy="78.5" r="78.5" transform="translate(37 556)"/><circle class="b" cx="52.5" cy="52.5" r="52.5" transform="translate(157 591)"/><circle class="b" cx="94" cy="94" r="94" transform="translate(194 649)"/></g><circle class="c" cx="78.5" cy="78.5" r="78.5" transform="translate(-52 473)"/><circle class="c" cx="78.5" cy="78.5" r="78.5" transform="translate(37 556)"/><circle class="c" cx="52.5" cy="52.5" r="52.5" transform="translate(157 591)"/><circle class="c" cx="52.5" cy="52.5" r="52.5" transform="translate(329 758)"/><circle class="c" cx="57.5" cy="57.5" r="57.5" transform="translate(417 738)"/><circle class="c" cx="57.5" cy="57.5" r="57.5" transform="translate(480 785)"/><circle class="c" cx="94" cy="94" r="94" transform="translate(194 649)"/><path class="c" d="M3657,3803v390h628l-116-115-176-26-188-181Z" transform="translate(-3682 -3256)"/></g></svg>