<svg xmlns="http://www.w3.org/2000/svg" width="123.397" height="120" viewBox="0 0 123.397 120"><defs><style>.a,.j{fill:#ebf9ff;}.a{mix-blend-mode:multiply;isolation:isolate;}.b{fill:#fafafa;}.c{fill:#f0f0f0;}.d{fill:#0089e1;}.e{fill:#c2cdd3;}.f{fill:#717b7f;}.g{fill:#fff;}.h{fill:#47c431;}.i{fill:#1a2e35;}</style></defs><g transform="translate(-593.05 -321.843)"><path class="a" d="M613.891,353.221s-33.207,15.55-15.789,38.6c11.463,15.168,24.965,16.292,29.211,37.366s19.007,8.952,38.838-5.22,52.377,7.438,30.373-33.58S674.106,281.611,613.891,353.221Z" transform="translate(0)"/><path class="a" d="M796.915,372.155s-33.207,15.549-15.789,38.6c11.463,15.168,24.965,16.292,29.212,37.366s19.007,8.952,38.838-5.22,52.377,7.438,30.373-33.58S857.129,300.545,796.915,372.155Z" transform="translate(-170.45 -17.633)"/><g transform="translate(650.433 328.372)"><g transform="translate(0 0.037)"><rect class="b" width="22.645" height="15.167"/></g><g transform="translate(0 0)"><rect class="c" width="22.645" height="1.92"/></g><g transform="translate(7.223 4.527)"><path class="d" d="M1543.641,487.439a2.417,2.417,0,0,0,1.44-2.236,2.272,2.272,0,1,0-4.534-.021,2.414,2.414,0,0,0,1.445,2.257c-3.489.526-3.331,4.318-3.331,4.318l8.25.038S1547.1,487.961,1543.641,487.439Z" transform="translate(-1538.66 -482.774)"/></g><g transform="translate(1.023 0.716)"><path class="e" d="M1448.889,427.527a.234.234,0,1,1-.234-.234A.234.234,0,0,1,1448.889,427.527Z" transform="translate(-1448.421 -427.293)"/><g transform="translate(0.766)"><path class="e" d="M1460.046,427.527a.234.234,0,1,1-.234-.234A.234.234,0,0,1,1460.046,427.527Z" transform="translate(-1459.578 -427.293)"/></g><g transform="translate(1.591)"><path class="e" d="M1472.041,427.527a.234.234,0,1,1-.234-.234A.234.234,0,0,1,1472.041,427.527Z" transform="translate(-1471.573 -427.293)"/></g></g></g><g transform="translate(615.093 373.882)"><rect class="e" width="76.739" height="4.016" rx="2.008" transform="translate(0)"/><rect class="f" width="73.295" height="1.308" rx="0.654" transform="translate(1.482 1.34)"/></g><g transform="translate(617.313 348.806)"><path class="g" d="M1634.807,777.453h-11.524v-58.03h4.857c4.192,0,6.667,3.4,6.667,7.59Z" transform="translate(-1577.06 -719.386)"/><path class="d" d="M1635.729,746.06V725.646a6.223,6.223,0,0,0-6.223-6.223h0a6.223,6.223,0,0,0-6.223,6.223v51.807h16.965a7.709,7.709,0,0,0,7.928-7.386V746.06Z" transform="translate(-1577.06 -719.386)"/><g transform="translate(0 0)"><path class="g" d="M950.617,727.23l-.148,58.942h.555a.882.882,0,0,1,1.744,0l1.586,0a.882.882,0,0,1,1.744,0l1.586,0a.882.882,0,0,1,1.744,0l1.585,0a.882.882,0,0,1,1.744,0l1.586,0a.882.882,0,0,1,1.744,0l1.586,0a.881.881,0,0,1,1.744,0l1.586,0a.882.882,0,0,1,1.744,0l1.586,0a.881.881,0,0,1,1.744,0l1.586,0a.882.882,0,0,1,1.744,0l1.586,0a.882.882,0,0,1,1.744,0l1.586,0a.882.882,0,0,1,1.744,0l1.586,0a.882.882,0,0,1,1.744,0l1.585,0a.882.882,0,0,1,1.744,0l1.586,0a.882.882,0,0,1,1.744,0h.555l.169-67.305L959,718.888A8.364,8.364,0,0,0,950.617,727.23Z" transform="translate(-950.469 -718.888)"/></g></g><g transform="translate(675.805 375.424)"><path class="g" d="M1804.45,1107.143v25.078a6.224,6.224,0,1,0,12.446,0v-25.078Z" transform="translate(-1804.45 -1107.143)"/></g><rect class="d" width="10.774" height="22.251" rx="5.387" transform="translate(622.66 371.81)"/><rect class="h" width="10.774" height="29.873" rx="5.387" transform="translate(635.189 364.212)"/><rect class="e" width="10.774" height="16.909" rx="5.387" transform="translate(646.928 377.136)"/><rect class="b" width="6.96" height="0.506" transform="translate(624.599 383.492)"/><rect class="b" width="6.96" height="0.506" transform="translate(624.599 386.325)"/><rect class="b" width="6.96" height="0.506" transform="translate(624.599 389.158)"/><g transform="translate(648.765 386.317)"><rect class="b" width="6.96" height="0.506" transform="translate(0 0)"/><rect class="b" width="6.96" height="0.506" transform="translate(0 2.847)"/></g><rect class="b" width="6.96" height="0.506" transform="translate(636.808 383.618)"/><rect class="b" width="6.96" height="0.506" transform="translate(636.808 380.848)"/><rect class="b" width="6.96" height="0.506" transform="translate(636.808 378.079)"/><rect class="b" width="6.96" height="0.506" transform="translate(636.808 386.388)"/><rect class="b" width="6.96" height="0.506" transform="translate(636.808 389.158)"/><circle class="b" cx="2.763" cy="2.763" r="2.763" transform="translate(625.142 376.332)"/><circle class="b" cx="2.763" cy="2.763" r="2.763" transform="translate(637.661 368.629)"/><circle class="b" cx="2.763" cy="2.763" r="2.763" transform="translate(649.407 378.858)"/><rect class="c" width="35.225" height="2.072" transform="translate(622.799 397.87)"/><rect class="c" width="20.811" height="2.072" transform="translate(622.828 402.222)"/><rect class="c" width="11.67" height="2.072" transform="translate(646.194 402.222)"/><rect class="c" width="35.225" height="2.072" transform="translate(622.799 407.719)"/><g transform="translate(614.839 350.454)"><g transform="translate(0 0)"><g transform="translate(0.879)"><path class="i" d="M929.774,747.269h-.761v-4.14a1.767,1.767,0,0,0-3.535,0v4.14h-.761v-4.14a2.528,2.528,0,0,1,5.056,0Z" transform="translate(-924.718 -740.601)"/></g><g transform="translate(0 4.827)"><rect class="d" width="6.814" height="4.371" rx="2.186"/></g><g transform="translate(2.837 5.873)"><path class="i" d="M954.364,826.66a.57.57,0,1,1-.569-.569A.569.569,0,0,1,954.364,826.66Z" transform="translate(-953.225 -826.091)"/><g transform="translate(0.414 0.795)"><rect class="i" width="0.311" height="1.171"/></g></g></g></g><g transform="translate(-265.727 -1002.147)"><path class="d" d="M970.27,1351.927v10.843a1.4,1.4,0,0,1-1.389,1.389H949.065a1.4,1.4,0,0,1-1.393-1.389v-10.843a1.4,1.4,0,0,1,1.393-1.389h19.816A1.4,1.4,0,0,1,970.27,1351.927Z" transform="translate(0 0)"/><rect class="j" width="22.598" height="3.468" transform="translate(947.672 1354.508)"/><g transform="translate(962.385 1359.184)"><g transform="translate(0 0)"><path class="j" d="M1093.531,1432.65h-5.622a.511.511,0,0,0-.511.511h0a.511.511,0,0,0,.511.511h5.622a.511.511,0,0,0,.511-.511h0A.511.511,0,0,0,1093.531,1432.65Z" transform="translate(-1087.398 -1432.65)"/><path class="j" d="M1119.589,1451.633h-2.556a.511.511,0,0,0-.511.511h0a.511.511,0,0,0,.511.511h2.556a.511.511,0,0,0,.511-.511h0A.511.511,0,0,0,1119.589,1451.633Z" transform="translate(-1113.455 -1449.634)"/></g></g></g></g></svg>