<svg xmlns="http://www.w3.org/2000/svg" width="36" height="37" viewBox="0 0 36 37"><defs><style>.a{fill:#f1ea89;}.b{fill:#fff;}</style></defs><g transform="translate(-0.367 0)"><ellipse class="a" cx="18" cy="18.5" rx="18" ry="18.5" transform="translate(0.367 0)"/><path class="b" d="M3.021,8.308H.755A.755.755,0,0,0,0,9.064v2.266a.755.755,0,0,0,.755.755H3.021a.755.755,0,0,0,.755-.755V9.064A.755.755,0,0,0,3.021,8.308ZM2.455,6.42H6.986V7.553H8.119V6.42h4.532V7.553h1.133V6.194a.908.908,0,0,0-.907-.907H8.119V3.776h.944a.755.755,0,0,0,.755-.755V.755A.755.755,0,0,0,9.064,0H6.042a.755.755,0,0,0-.755.755V3.021a.755.755,0,0,0,.755.755h.944V5.287H2.228a.908.908,0,0,0-.907.907V7.553H2.455ZM8.686,8.308H6.42a.755.755,0,0,0-.755.755v2.266a.755.755,0,0,0,.755.755H8.686a.755.755,0,0,0,.755-.755V9.064A.755.755,0,0,0,8.686,8.308Zm5.665,0H12.085a.755.755,0,0,0-.755.755v2.266a.755.755,0,0,0,.755.755h2.266a.755.755,0,0,0,.755-.755V9.064A.755.755,0,0,0,14.351,8.308Z" transform="translate(10.581 12.745)"/></g></svg>