<svg xmlns="http://www.w3.org/2000/svg" width="66.667" height="66.667" viewBox="0 0 66.667 66.667"><defs><style>.a{fill:#96ceb5;}.b{fill:#dd9852;}.c{fill:#e8af70;}.d{fill:#c17f3e;}.e{fill:#d89859;}.f{fill:#3a3835;}.g{fill:#ac2f2c;}.h{fill:#2b3990;}</style></defs><g transform="translate(-459.151 -1411.586)"><path class="a" d="M525.818,1444.92a33.333,33.333,0,1,1-33.333-33.334A33.332,33.332,0,0,1,525.818,1444.92Z" transform="translate(0 0)"/><path class="b" d="M620.118,1590.136a2.7,2.7,0,0,1-1.783.809H616.29v2.841a10.578,10.578,0,0,0,6.91-2.729l-.206-.073a3.717,3.717,0,0,1-1.115-.643,4.387,4.387,0,0,1-.865-.96l-.126.105Z" transform="translate(-123.805 -140.079)"/><path class="c" d="M590.627,1591.655v-.677h-2.061a2.7,2.7,0,0,1-1.783-.809l-.769-.648h0l-.115-.1a4.407,4.407,0,0,1-.86.951,3.707,3.707,0,0,1-1.114.643l-.207.073a10.578,10.578,0,0,0,6.91,2.729Z" transform="translate(-98.142 -140.113)"/><path class="d" d="M666.344,1517.955a2.983,2.983,0,0,0,.208-1v-2.578a.771.771,0,0,0,.271-.088c.948-.5-.047-.887.6-2.806,1.094-3.23.12-4.527-.874-4.457v-1.187c-.159.769-.328,1.463-.475,2.026A63.52,63.52,0,0,1,666.344,1517.955Z" transform="translate(-163.032 -74.262)"/><path class="d" d="M616.289,1491.547h.077c2.728-.012,5.728-.144,7.8,1.73a15.855,15.855,0,0,0,2.2-7c0,.012,0,.024,0,.036,0-.012,0-.024,0-.036-.19-1.843-.743-6.018-1.958-7.234a4.105,4.105,0,0,0-2.985-1.275,40.6,40.6,0,0,0-5.137,1.063v0h0v12.711Z" transform="translate(-123.804 -52.146)"/><path class="d" d="M619.558,1554.849a7.16,7.16,0,0,0,2.964-1.424c-1.512-1.855-4.04-1.63-6.233-1.614v3.21A21.371,21.371,0,0,0,619.558,1554.849Z" transform="translate(-123.804 -110.467)"/><path class="e" d="M559.685,1509.138l.006.021,0-.021c-.145-.5-.309-1.124-.466-1.814v.872c-.994-.07-1.968,1.226-.874,4.456.65,1.919-.344,2.3.6,2.806a.766.766,0,0,0,.271.088v2.578a2.933,2.933,0,0,0,.2.966A63.415,63.415,0,0,1,559.685,1509.138Z" transform="translate(-77.778 -75.429)"/><path class="e" d="M589.375,1554.811a23.5,23.5,0,0,0,3.2.156v-3.21h-.114c-2.15-.008-4.784-.361-6.27,1.5a7.151,7.151,0,0,0,3.107,1.541Z" transform="translate(-100.095 -110.412)"/><path class="e" d="M578.853,1491.547v-12.711a40.532,40.532,0,0,0-5.137-1.063,4.1,4.1,0,0,0-2.984,1.275c-1.216,1.216-1.769,5.392-1.958,7.235a15.683,15.683,0,0,0,2.279,7.117C573.127,1491.509,576.1,1491.536,578.853,1491.547Z" transform="translate(-86.369 -52.146)"/><path class="f" d="M568.471,1467.631l.769.648a2.7,2.7,0,0,0,1.783.809h4.106a2.7,2.7,0,0,0,1.783-.809l.769-.649.126-.105,5.6-4.723a2.982,2.982,0,0,0,.5-.885,63.367,63.367,0,0,0-.264-10.066l.005-.022c.147-.562.316-1.257.475-2.025a22.469,22.469,0,0,0,.547-5.357c-.663-13.007-21.889-12.943-23.167,0a18.879,18.879,0,0,0,.547,5.671c.157.69.322,1.311.466,1.814.208.724.372,1.205.4,1.3,0,.012,0,.019,0,.019s-.175-.5-.4-1.3l-.006-.021a63.431,63.431,0,0,0-.262,9.952l0,.033a2.989,2.989,0,0,0,.5.885l5.607,4.732.115.1Zm-3.191-8.15A15.631,15.631,0,0,1,563,1452.4l0-.036c.189-1.843.743-6.019,1.958-7.235a4.1,4.1,0,0,1,2.984-1.275,40.536,40.536,0,0,1,5.137,1.063h0a40.606,40.606,0,0,1,5.137-1.063,4.105,4.105,0,0,1,2.985,1.275c1.214,1.216,1.768,5.391,1.958,7.234.048.47.074.79.079.868l-.006.02s-.024-.329-.077-.853c0-.011,0-.024,0-.036a15.854,15.854,0,0,1-2.2,7c-2.069-1.874-5.069-1.742-7.8-1.73h-.077c-2.756-.012-5.726-.038-7.8,1.854Zm1.417,1.588,0,0c1.486-1.858,4.12-1.5,6.27-1.5h.114c2.193-.017,4.721-.241,6.233,1.614a7.162,7.162,0,0,1-2.964,1.424,21.392,21.392,0,0,1-3.269.172,23.438,23.438,0,0,1-3.2-.156l-.08-.016A7.147,7.147,0,0,1,566.7,1461.069Z" transform="translate(-80.599 -18.223)"/><path class="g" d="M575.073,1599.188l-8.277-1.907a10.112,10.112,0,0,1-13.819,0l-8.277,1.907C553.8,1608.151,565.971,1608.152,575.073,1599.188Z" transform="translate(-67.402 -146.304)"/><path class="h" d="M557.021,1606.981l-3.081-.71c-9.1,8.964-21.271,8.964-30.372,0l-3.08.71a4.05,4.05,0,0,0-2.609,3.507v13.8a33.33,33.33,0,0,0,41.752,0v-13.8A4.05,4.05,0,0,0,557.021,1606.981Z" transform="translate(-46.269 -153.387)"/></g></svg>