<svg xmlns="http://www.w3.org/2000/svg" xmlns:xlink="http://www.w3.org/1999/xlink" width="146" height="146" viewBox="0 0 146 146"><defs><style>.a{fill:#f0f4f6;}.b{fill:#e3f5f6;}.c{fill:#58f692;stroke:#fff;stroke-width:6px;}.d{clip-path:url(#a);}.e{fill:#5e3b33;}.f{fill:#8f4b4a;}.g{fill:#6c2e2c;}.h{fill:#c7a06e;}.i{fill:#a67a42;}.j{fill:#dcdcdc;}.k{fill:#45221f;}.l{fill:#1f172e;}.m{fill:#acbdcc;}.n{fill:#202020;}.o{fill:#161616;}.p{stroke:none;}.q{fill:none;}</style><clipPath id="a"><circle class="a" cx="73" cy="73" r="73"/></clipPath></defs><g transform="translate(-336 -175)"><circle class="b" cx="73" cy="73" r="73" transform="translate(336 175)"/><g class="c" transform="translate(444 181)"><ellipse class="p" cx="11.5" cy="12" rx="11.5" ry="12"/><ellipse class="q" cx="11.5" cy="12" rx="14.5" ry="15"/></g><g class="d" transform="translate(336 175)"><g transform="translate(-6.049 12.017)"><path class="e" d="M1806.369,405.128l-6.825.005c-3.61-.456-7.223-.938-10.406-2.952-1.734-1.1-3.394-2.337-5.058-3.528-2.349-1.681-5.031-2.693-7.353-4.327-5.333-3.752-6.732-9.262-6.08-15.554q.775-7.482,1.6-14.958c.507-4.638,1.163-9.262,1.521-13.911a128.254,128.254,0,0,0,.336-17.856,90.225,90.225,0,0,1,1.04-21.835,34.763,34.763,0,0,1,3.317-10.628c2.27-4.16,5.58-7.027,10.28-7.5a11.251,11.251,0,0,1,11.167,5.6c.532.837.942,1.192,1.88.67,6.916-3.856,16,.518,17.563,10.207.607,3.755.666,7.554.97,11.332.69,8.561.889,17.15,1.135,25.736.192,6.712.593,13.419,1,20.122.219,3.6,1.016,7.178.286,10.8a1.692,1.692,0,0,0,.829,1.76c4.909,3.912,6.753,9.1,5.184,15.213-1.539,6-5.737,9.311-11.565,10.552C1813.616,404.841,1809.965,404.668,1806.369,405.128Z" transform="translate(-1732.268 -277.973)"/><path class="f" d="M1803.189,440.595c-2.737.036-4.848-.261-6.661-1.689a1.413,1.413,0,0,0-1.088-.417c-4.293.748-8.053-1.235-11.937-2.511a17.151,17.151,0,0,1-5.037-2.512c-.721-.544-1.372-1.135-1.268-2.123.112-1.05.988-1.367,1.816-1.6,3-.852,6.047-1.573,9.021-2.521,4.138-1.319,4.35-1.873,4.831-6.284a32.983,32.983,0,0,0-1.4-12.922,17.692,17.692,0,0,1-.623-3.257,3.883,3.883,0,0,1,2.083-3.9,15.538,15.538,0,0,1,6.134-1.963c4.372-.558,8.7-.542,12.828,1.424,1,.478,1.77,1.686,3.283.775.676-.407.962.784.878,1.479-.348,2.892-.688,5.789-1.159,8.662a65.228,65.228,0,0,0-.953,11.676c.05,2.972,1.777,4.683,4.181,5.829,2.316,1.1,4.859,1.624,7.112,2.906.7.4,1.546.668,1.624,1.621.088,1.065-.666,1.638-1.422,2.215-2.642,2.017-5.777,2.242-8.861,2.674a3.3,3.3,0,0,0-1.319.28C1811.339,441,1806.857,439.951,1803.189,440.595Z" transform="translate(-1736.813 -350.364)"/><path class="f" d="M1770.359,485.887h2.386a4.284,4.284,0,0,0,3.989,1.138,21.794,21.794,0,0,1,7.11-.282c3.911.36,7.491,1.83,11.13,3.141a2.4,2.4,0,0,0,1.956.21,6.926,6.926,0,0,1,4.67-.026c3.195.807,6.253,2.107,9.506,2.711a5.112,5.112,0,0,1,4.417,3.847c.6,2.3-.312,4.061-1.829,5.683-3.735,3.995-8.556,6.339-13.079,9.1-5.831,3.556-12.28,4.716-19.005,4.384a13.669,13.669,0,0,0-1.5-.309,40.482,40.482,0,0,1-22.467-9.173,26.334,26.334,0,0,0-6.1-3.816,11.637,11.637,0,0,1-3.975-2.661,5.313,5.313,0,0,1,.867-8.073,10.838,10.838,0,0,1,3.774-1.567c5.2-1.214,10.42-2.359,15.628-3.545C1768.694,486.451,1769.695,486.752,1770.359,485.887Z" transform="translate(-1715.693 -409.681)"/><path class="g" d="M1821.71,421.677c.527.114,1.66,7.946,1.561,10.125s10.61,4.7,15.812.475c4.815-3.908,7.423-13.59,7.423-13.59Z" transform="translate(-1767.06 -364.027)"/><path class="f" d="M1813.543,288.792h2.386c.247.439,3.073-1.524,3.455-1.493,8.08.654,10.678,7.133,13.3,14.831a8.862,8.862,0,0,1,.553,4.633c-2.04,10.462-2.321,19.651-9.01,28.342a16.347,16.347,0,0,1-6.648,5.445c-1.446.612-7.036,1.115-8.466.41-6.147-3.029-8.173-7.438-10.693-13.65-2.923-7.209-3.6-15.039-4.96-22.692-.21-1.183-.712-2.6.067-3.595,1.389-1.775,2.18-3.945,3.766-5.58,3.106-3.2,7.007-4.636,11.155-5.627C1810.136,289.411,1811.923,289.543,1813.543,288.792Z" transform="translate(-1747.627 -274.766)"/><path class="h" d="M1682.066,516.816c-.139,3.4.573,6.708.911,10.057a31.459,31.459,0,0,1-.058,6.812c-.263,2.249-.4,4.517-.5,6.781-.237,5.233-.3,10.606-1.878,15.525-2.977,9.307-3.958,19.124-7.24,28.31-1.8,5.027-3.528,10.124-7.628,13.862a23.979,23.979,0,0,1-6.036,3.853c-2.374,1.125-4.151.37-6.03-2.024a11.668,11.668,0,0,1-2.214-6.824,65.457,65.457,0,0,1,1.23-17.737c2.221-10.084,3.662-17.964,5.455-28.154,1.088-6.187,1.924-12.711,2.778-18.92,1.142-8.3,1.568-10.8,2.819-15.076a19.155,19.155,0,0,1,2.294-5.029c.963-1.5,2.563-1.81,4.021-2.374,1.109-.429,9.993-2.769,11.057-3.285,2.035-.988-3.961,1.715-2.4,3.106,2.451,2.186,3.127,5.174,3.406,8.308C1682.134,514.937,1682.064,515.88,1682.066,516.816Z" transform="translate(-1651.263 -420.887)"/><path class="h" d="M1988.651,609.641c-4.008.639-6.657-1.584-8.145-5.33-1.842-4.64-4.7-8.64-7.174-12.88-3.781-6.469-6.707-13.378-9.768-20.217-.094-.211-.273-.473-.22-.649,1.029-3.4-1.535-5.672-2.532-8.407-1.084-2.969-2.281-5.9-1.917-9.116.482-4.265,1.108-8.517,1.8-12.752.671-4.122,1.471-8.223,2.271-12.322a14.351,14.351,0,0,1,2.421-5.708,3.9,3.9,0,0,1,6.907,1.524c3.659,8.307,5.727,16.039,7.92,24.235,1.374,5.135,3.178,10.4,4.954,15.369,3.225,9.031,5.555,17.967,8.178,27.209,1.174,4.138,2.947,8.071,4.063,12.241.8,2.971-.063,4.866-2.9,5.868a16.679,16.679,0,0,1-2.746.9A20.387,20.387,0,0,1,1988.651,609.641Z" transform="translate(-1860.215 -433.346)"/><path class="i" d="M1817.865,758.136a12.584,12.584,0,0,1-1.984,5.826c-2.035,2.939-4.016,5.884-6.86,8.1a2.235,2.235,0,0,1-2.059.444,1.155,1.155,0,0,1-.975-1.256c.724-5.3,1.183-10.7,5.058-14.858.469-.5.884-1.06,1.36-1.555,2.345-2.439,4.03-2.025,5.163,1.234A5.2,5.2,0,0,1,1817.865,758.136Z" transform="translate(-1756.37 -591.332)"/><path class="h" d="M1703.737,501.051v-.7c.388-.027.524-.3.723-.617a8.034,8.034,0,0,1,4.39-3.655c5.248-1.662,10.476-3.4,15.731-5.037a35.382,35.382,0,0,1,9.259-1.961c1.521-.054,1.943.65,2.339,2.068,2.116,7.567,5.215,14.47,12.5,18.345a8.284,8.284,0,0,0,3.7,1.052,17.028,17.028,0,0,0,13.938-6.026,17.239,17.239,0,0,0,4.522-9.234c.208-1.585-.046-3.038-1.7-3.782-.371-.167-.82-.421-.717-.861.131-.567.712-.507,1.152-.469a18.271,18.271,0,0,1,4.157.778c3.448,1.128,6.845,2.387,10.369,3.315,3.487.918,7.094,1.555,10.377,3.235,3,1.536,4.793,3.458,4.314,6.092a268.4,268.4,0,0,1-6.438,26.086,117.16,117.16,0,0,0-4.03,21.22c-.478,4.983-.768,9.965-2.066,14.836-1.483,5.565-2.491,11.277-5.125,16.46a5.373,5.373,0,0,1-1.159,1.713,1.175,1.175,0,0,1-1.409.253c-.483-.25-.523-.714-.471-1.208.032-.309.393-.631-.123-1.012-.819.5-1.495,1.3-2.413,1.766-1.071.548-2.094-.4-2.974.01-2.8,1.306-5.821,1.083-8.7,1.189q-8.486.312-16.962.765a59.553,59.553,0,0,1-11.714-.331c-2.45-.355-5-.226-7.321-1.267-.954-.427-1.2-.241-1.454.758s.057,2.728-1.645,2.561c-1.436-.141-1.224-1.746-1.631-2.771a.878.878,0,0,1-.027-.173c-1.158-6.644-3.524-12.9-5.809-19.182-3.5-9.621-6.8-19.318-9.426-29.229-2.253-8.508-2.8-17.3-3.486-26.06-.046-.588.259-1.363-.677-1.547v-4.567C1705.028,502.925,1703.922,501.988,1703.737,501.051Z" transform="translate(-1686.912 -411.847)"/><path class="i" d="M1932.627,764.463c.3.414.514.753.769,1.058a1.554,1.554,0,0,1,.227,1.939,1.8,1.8,0,0,1-2.116.681,13.017,13.017,0,0,1-8-5.776c-1.457-2.364-2.957-4.7-4.441-7.046a2.307,2.307,0,0,1-.373-2.455c.469-.876,1.325-.746,2.121-.752,4.175-.031,7.847,1.6,11.311,3.772a6.7,6.7,0,0,1,2.844,4.192C1935.3,761.715,1934.237,763.35,1932.627,764.463Z" transform="translate(-1832.794 -590.545)"/><path class="f" d="M1839.229,777.358c-5.4,3.747-4.464-.256-3.977-.95.227-.323-3.636-.69-2.161-2.481.408-.5.757-.817,1.052-1.169,2.13-2.539,2.3-2.24,5.064-3.877,4.145-2.452,7.494-5.81,11.018-9,2.594-2.349,5.536-4.257,8.012-6.77a3,3,0,0,1,3-.785c3.372.909,6.958,5.839,6.816,9.382a1.88,1.88,0,0,1-1.157,1.883c-1.713.851-2.854,2.461-4.185,3.808-2.467,2.5-4.792,5.143-7.489,7.391a3.888,3.888,0,0,1-3.424.984,11.818,11.818,0,0,0-3.865.318c-1.355.227-2.626,1.014-3.992.916C1843.286,776.959,1839.768,776.983,1839.229,777.358Z" transform="translate(-1774.563 -590.611)"/><path class="f" d="M1936.845,764.384h-2.387a1.013,1.013,0,0,0-.944-.627c-1.794-.263-3.607-.429-5.379-.8-1.817-.383-3.759.085-5.481-.939-1.245-.74-1.423-1.469-.376-2.406a8.2,8.2,0,0,1,2.417-2.091c-1.069-.194-1.668-.326-2.275-.406-.591-.079-1.359.166-1.526-.715-.151-.8.486-1.089,1.063-1.378.216-.109.6-.061.541-.612-.62-.148-1.262-.327-1.915-.45-2.515-.475-2.646-.726-1.465-2.923h2.045c.38.654,1.064.546,1.646.707,4.038,1.112,8.088,2.186,12.1,3.38,1.838.546,1.932,1.112.758,2.711-1.559,2.123-1.412,2.736.88,3.689C1938.23,762.219,1938.311,763.006,1936.845,764.384Z" transform="translate(-1832.747 -589.815)"/><path class="f" d="M1840.474,767.6a4.436,4.436,0,0,1-.962,3.265,19.506,19.506,0,0,1-5.928,5.667,2.462,2.462,0,0,1-2.287.265c-3.922-1.745-8.119-2.535-12.2-3.7-2.4-.688-4.607-1.9-7.008-2.618-1.508-.451-1.585-2.2-1.179-3.457a18.14,18.14,0,0,1,4.884-8.267c2.064-1.856,4.227-1.885,6.618-1.063,3.882,1.335,7.374,3.586,11.217,5.025,1.91.715,3.724,1.7,5.59,2.546A1.836,1.836,0,0,1,1840.474,767.6Z" transform="translate(-1759.576 -593.987)"/><g transform="translate(58.586 98.745)"><path class="i" d="M1844.085,559.156a28.057,28.057,0,0,1-8.389-1.586,11.141,11.141,0,0,0-1.152-.332.517.517,0,0,1-.55-.438.525.525,0,0,1,.42-.606,4.2,4.2,0,0,1,1.582.369c2.561.812,7.888,2.5,12.42.825a.508.508,0,0,1,.654.318.531.531,0,0,1-.309.674A13.459,13.459,0,0,1,1844.085,559.156Z" transform="translate(-1833.987 -556.183)"/></g><path class="h" d="M1679.166,753.358c5.314.643,10.6-.209,15.891-.43a99.958,99.958,0,0,0,17.143-1.873,16.516,16.516,0,0,1,4.074-.1c.981.037,1.353,1.032,1.8,1.694.331.486-.482.676-.829.783-4.344,1.329-5.872,5-6.981,8.959a20.193,20.193,0,0,0-1.1,6.862c.1,1.479-.541,1.439-2.068,1.247-14.082-1.771-40.522,1.537-43.454.785-1.514-.388-3.683-4.7-1.8-7.964,3.016-5.237,7.374-8.737,13.443-9.611A23.5,23.5,0,0,1,1679.166,753.358Z" transform="translate(-1657.955 -589.709)"/><path class="h" d="M1909.492,751.736a.906.906,0,0,1,.916-.779c4.818-.311,9.63-1.165,14.466-.171a9.334,9.334,0,0,0,1.861.109c8.229.007,16.458.02,24.688-.012a17.945,17.945,0,0,0,4.036-.371c2.752-.65,4.617,1.082,6.253,2.683,3.519,3.441,4.267,8.051,4.183,12.835-.027,1.576-1.843,3.092-3.958,3.107-6.835.05-33.167-1.973-35.979-2.116-.912-.047-1.353-1.474-.8-2.678a8.165,8.165,0,0,0-5.629-11.352c-2.27-.428-4.541-.854-6.8-1.336C1911.657,751.427,1910.65,752.361,1909.492,751.736Z" transform="translate(-1826.697 -589.329)"/><path class="e" d="M1756.5,417.038c-.906.341-1,1.549-1.609,2.19-2.3,2.428-8.118,1.063-10.613-.289a1.8,1.8,0,0,1-.889-2.678c1-2,1.815-3.969,1.206-6.274-1.119-4.232-6.008-5.787-7.148-9.879-.637-2.287-.026-4.76.558-6.987,1.059-4.037,2.54-8.112,2.169-12.364-.4-4.545-3.159-8.155-5.9-11.515-1.861-2.281-1.611-4.955-.7-7.481,3.707-10.3,7.86-20.338,9.932-31.163.971-5.071.769-10.1.844-15.243a68.379,68.379,0,0,1,6.011-26.583,45.779,45.779,0,0,1,2.47-5.247c.249-.4.7.124,1.223.279a1.268,1.268,0,0,1,.859,1.2,2.888,2.888,0,0,1-.163,1.371,54,54,0,0,0-3.194,21.484c.213,5.332,2.277,10.218,4.318,15.033a54.347,54.347,0,0,0,3.313,7.1,9.164,9.164,0,0,1,.842,4.423c.23,6.2-.393,12.385-.407,18.584a11.889,11.889,0,0,0,3.683,9.08c4.887,4.671,5.808,10.577,5.1,17.033-.461,4.2-2.432,8.068-2.57,12.3-.148,4.535,3.182,7.035,4.819,10.868,2.337,5.471,1.681,11.856-.807,17.156a2.333,2.333,0,0,1-2.076,1.561c-3.1.128-6.205.3-9.308.313-2.756.011-1.233-2.679-1.925-4.283Z" transform="translate(-1706.712 -272.102)"/><g transform="translate(19.609 90.659)"><path class="i" d="M1721.681,555.8a.516.516,0,0,1-.5-.432c-1.553-8.731-7.793-22.372-8.541-23.445a.524.524,0,0,1-.195-.278.53.53,0,0,1,.34-.657.544.544,0,0,1,.434.06c.892.56,7.4,15.333,8.967,24.131a.526.526,0,0,1-.411.613A.5.5,0,0,1,1721.681,555.8Zm-8.6-23.8-.031.008Z" transform="translate(-1712.421 -530.963)"/></g><g transform="translate(22.45 112.143)"><path class="i" d="M1729.24,605.972a.511.511,0,0,1-.465-.306,12.9,12.9,0,0,0-6.975-6.642.528.528,0,0,1-.056-1.051c.759-.075,5.673,2.135,7.96,7.253a.533.533,0,0,1-.25.7A.5.5,0,0,1,1729.24,605.972Z" transform="translate(-1721.281 -597.97)"/></g><g transform="translate(26.173 130.832)"><path class="i" d="M1733.406,671.483a.493.493,0,0,1-.12-.015.528.528,0,0,1-.378-.635c2.143-9.229,3.323-14.054,3.508-14.339a.5.5,0,0,1,.709-.146.537.537,0,0,1,.17.683c-.246.649-2.158,8.736-3.392,14.047A.515.515,0,0,1,1733.406,671.483Z" transform="translate(-1732.894 -656.26)"/></g><g transform="translate(9.592 163.033)"><path class="i" d="M1681.692,760.906a.506.506,0,0,1-.416-.22.538.538,0,0,1,.117-.735c4.814-3.555,8.812-3.389,10.306-3.153l.044.006a.529.529,0,0,1,0,1.052.8.8,0,0,1-.2-.017c-1.371-.215-5.047-.361-9.555,2.968A.5.5,0,0,1,1681.692,760.906Z" transform="translate(-1681.18 -756.691)"/></g><g transform="translate(11.313 155.774)"><path class="i" d="M1695.355,740.74a.506.506,0,0,1-.421-.227c-2.155-3.207-7.99-5.416-8.049-5.438a.531.531,0,0,1-.307-.675.507.507,0,0,1,.655-.316c.252.094,6.2,2.348,8.542,5.829a.538.538,0,0,1-.129.733A.5.5,0,0,1,1695.355,740.74Z" transform="translate(-1686.548 -734.052)"/></g><g transform="translate(34.041 160.338)"><path class="i" d="M1757.943,752.029a.517.517,0,0,1-.506-.454.525.525,0,0,1,.436-.594c.059-.008,6.023-.859,11.973-1.6,12.346-1.53,12.589-1.143,12.845-.733.511.818,1.24,1.928,1.247,1.939a.537.537,0,0,1-.137.732.5.5,0,0,1-.71-.141c-.007-.011-.667-1.015-1.176-1.825-1.682-.3-15.436,1.46-23.9,2.669A.476.476,0,0,1,1757.943,752.029Z" transform="translate(-1757.432 -748.284)"/></g><g transform="translate(80.472 160.225)"><path class="i" d="M1902.758,751.791a.5.5,0,0,1-.311-.109.537.537,0,0,1-.095-.739,14.2,14.2,0,0,1,2.615-2.851c.407-.2,2.172-.2,7.631-.067,2.5.059,5.6.133,6.042.042a.508.508,0,0,1,.637.3.532.532,0,0,1-.279.688c-.346.148-1.681.138-6.425.025-2.8-.066-6.622-.156-7.182-.026a14.755,14.755,0,0,0-2.228,2.531A.5.5,0,0,1,1902.758,751.791Zm15.874-3.72-.021.008Z" transform="translate(-1902.247 -747.934)"/></g><g transform="translate(102.45 112.142)"><path class="i" d="M1971.305,608.43a.493.493,0,0,1-.141-.02.529.529,0,0,1-.351-.651l2.606-9.408a.51.51,0,0,1,.632-.362.529.529,0,0,1,.352.652l-2.606,9.408A.514.514,0,0,1,1971.305,608.43Z" transform="translate(-1970.793 -597.969)"/></g><g transform="translate(102.45 93.127)"><path class="i" d="M1971.3,556.343a.5.5,0,0,1-.194-.039.532.532,0,0,1-.279-.687,146.569,146.569,0,0,0,5.09-16.554.511.511,0,0,1,.619-.385.528.528,0,0,1,.374.638,147.708,147.708,0,0,1-5.137,16.7A.512.512,0,0,1,1971.3,556.343Z" transform="translate(-1970.793 -538.661)"/></g><g transform="translate(67.905 140.2)"><path class="i" d="M1863.561,706.794a.5.5,0,0,1-.126-.016.529.529,0,0,1-.37-.641c1.9-7.685,4.741-19.351,4.839-20.147a.52.52,0,0,1,.476-.511.513.513,0,0,1,.545.49c.03.457-2.631,11.361-4.87,20.429A.514.514,0,0,1,1863.561,706.794Z" transform="translate(-1863.049 -685.477)"/></g><g transform="translate(70.332 134.697)"><path class="i" d="M1871.133,687.4a.5.5,0,0,1-.174-.031.531.531,0,0,1-.307-.675c.016-.045,1.6-4.562,3.2-9.021,3.365-9.361,3.439-9.361,3.92-9.361a.52.52,0,0,1,.511.527.533.533,0,0,1-.149.372c-.533.96-4.172,11.137-6.523,17.84A.512.512,0,0,1,1871.133,687.4Z" transform="translate(-1870.621 -668.313)"/></g><path class="e" d="M1911.118,442.46a3.192,3.192,0,0,1-2.842,2.413,28.313,28.313,0,0,1-6.2.93c-1.974-.058-2.228-.459-1.547-2.321A29.266,29.266,0,0,0,1902,439.01q-1.922,2.234-3.844,4.467c-1.452,1.68-3.079,2.8-5.46,2.426-2.21-.348-4.508.361-6.7-.63-1.593-.72-1.92-1.2-1.1-2.736,1.418-2.664,3.022-5.224,4.414-7.9,1.722-3.316,3.307-6.716,2.3-10.666a16.574,16.574,0,0,0-3.46-6.772c-3.734-4.35-3.747-9.025-1.393-13.992,1.466-3.093,3.221-6.049,3.979-9.471a18.543,18.543,0,0,0-.477-10.336c-.9-2.582-1.725-5.193-2.661-7.76a12.992,12.992,0,0,1-.236-8.07c1.862-6.92,3.557-13.888,5.492-20.786,1.918-6.837,2-13.81,1.887-20.821-.017-1.1-.263-2.411.962-2.937,1.184-.508,2.157.471,3.054,1.1a9.981,9.981,0,0,1,1.529,1.86,1.451,1.451,0,0,0,1.642.632c.559-.245.3-.948.253-1.428-.16-1.673-.392-3.338-.6-5.006a1.486,1.486,0,0,1,.346-1.3,25.978,25.978,0,0,1,1.267,5.558c.626,5.25.014,10.5.042,15.755a145.458,145.458,0,0,0,4.476,34.631,22.5,22.5,0,0,0,2.56,5.325c2.328,4.211,2.008,8.3.16,12.562-3.016,6.958-1.839,13.784.941,20.488a10.612,10.612,0,0,0,3.247,3.778c4.061,3.5,6.3,7.706,5.389,13.348-.276,1.716-.2,3.489-.322,5.233-.3,4.434-2.476,6.887-6.609,7.833C1912.077,443.618,1911.468,443.709,1911.118,442.46Z" transform="translate(-1809.694 -296.22)"/><path class="e" d="M1771.469,285.421c0-2.225-2.157,4.505-2.157,2.28.38-9.379,5.28-23.38,7.629-27.866a22.03,22.03,0,0,1,11.331-9.895c3.727-1.463,10.206-2.158,15.669-1.456,8.027,1.03,13.666,5.955,17.073,13.308,3.275,6,3.829,11.62,4.129,16.6a8.262,8.262,0,0,1-.162,2.278c-.221,1.866-2.359,3.6-4,3.313-1.31-.231-6.977-5.721-7.259-7.069-.155-.741-.209-1.5-.354-2.247a13.7,13.7,0,0,0-1.3-4.542,29.073,29.073,0,0,1,.763,5.414c0,2.323-1.683,1.449-3.516,1.537-1.854.089-3.825-14.131-5.668-14.228-2.778-.145-6.52,13.393-8.31,13.305-1.324-.065-1.831-.36-1.747-1.823.091-1.575.305-7.41.234-8.758a12.257,12.257,0,0,0-.517,4.069c-.294,1.665-.574,3.333-.891,4.993-.106.555-.133,1.179-.784,1.452-2.619,1.1-5.21,2.274-7.861,3.282-1.2.454-1.86-.236-1.633-1.556a14.829,14.829,0,0,0,.035-4.2,85.949,85.949,0,0,0-2.849,10.252c-.222,1.2-.486,2.4-.812,3.579-.173.625-.6,1.382-1.307,1-.768-.412-1.268-.462-1.887.172-.318.326-.721.022-1.107-.077C1772.6,288.124,1772.25,286.58,1771.469,285.421Z" transform="translate(-1731.462 -248.209)"/><path class="j" d="M1834.394,411.526c-.288-.3-1.329-1.17-.96-1.584.3-.332,2.1.327,2.764.416a27.757,27.757,0,0,0,10.43-.666c.3-.078.623-.251.811.14a.855.855,0,0,1-.33,1.056,32.319,32.319,0,0,1-2.874,2.339A8.183,8.183,0,0,1,1834.394,411.526Z" transform="translate(-1774.971 -357.844)"/><path class="k" d="M1815.151,340.327a2.026,2.026,0,0,1,1.489,1.459c.152.513-.014.968-.735,1.1a15.223,15.223,0,0,1-3.419.28,10.484,10.484,0,0,0-3.362.238,1.641,1.641,0,0,1-.605.1c-.659-.071-.6-1.01-.281-1.409a3.3,3.3,0,0,1,1.379-.926,15.579,15.579,0,0,1,4.863-.9A2.337,2.337,0,0,1,1815.151,340.327Z" transform="translate(-1757.75 -310.749)"/><path class="k" d="M1874.419,338.381a6.518,6.518,0,0,1,.836.046,11.432,11.432,0,0,1,5.177,1.469c.491.333,1.148.677.845,1.406-.293.705-1.034.549-1.575.389a15.751,15.751,0,0,0-6.453-.554c-.6.073-1.261.114-1.5-.627-.25-.77.242-1.236.82-1.61A3.4,3.4,0,0,1,1874.419,338.381Z" transform="translate(-1801.008 -309.469)"/><path class="l" d="M1824.348,359.866c-.2.787-.258,1.74-1.309,1.742-.891,0-1.174-.776-1.346-1.533a3.173,3.173,0,0,1,.7-3.212.868.868,0,0,1,1.232-.05C1824.621,357.641,1824.281,358.808,1824.348,359.866Z" transform="translate(-1766.951 -321.833)"/><path class="l" d="M1881.389,358.544c.063-.422.107-.827.186-1.224.16-.806.532-1.484,1.43-1.406s1.161.822,1.192,1.635a8.484,8.484,0,0,1-.113,1.211c-.1.93-.118,2.06-1.357,2.011C1881.4,360.717,1881.534,359.479,1881.389,358.544Z" transform="translate(-1807.604 -321.377)"/><g transform="translate(50.405 9.987)"><path class="k" d="M1808.98,294.928a.509.509,0,0,1-.087-.008.523.523,0,0,1-.417-.6c.015-.095,2.687-12.141,3.772-14.648a.505.505,0,0,1,.675-.267.533.533,0,0,1,.259.7c-1.013,2.34-3.621,13.959-3.7,14.395A.519.519,0,0,1,1808.98,294.928Z" transform="translate(-1808.469 -279.356)"/></g><g transform="translate(78.245 12.856)"><path class="k" d="M1897.633,296.538a.49.49,0,0,1-.061,0,.52.52,0,0,1-.413-.324.542.542,0,0,1-.039-.187,46.767,46.767,0,0,0-1.772-6.974.534.534,0,0,1,.254-.7.506.506,0,0,1,.677.262,29.438,29.438,0,0,1,1.265,4.389c.694,3.051.649,3.113.5,3.32A.507.507,0,0,1,1897.633,296.538Z" transform="translate(-1895.301 -288.304)"/></g><g transform="translate(84.446 23.98)"><path class="k" d="M1915.2,355.612a.518.518,0,0,1-.508-.476c-.27-2.876.564-12.556,1.116-18.961.153-1.776.285-3.309.36-4.316a23.544,23.544,0,0,0-.66-8.021.54.54,0,0,1,.032-.664.5.5,0,0,1,.723-.039c.427.4,1.259,4.335.925,8.8-.076,1.012-.208,2.549-.361,4.328-.549,6.367-1.378,15.988-1.117,18.766a.523.523,0,0,1-.46.576Z" transform="translate(-1914.639 -323)"/></g><g transform="translate(82.899 63.852)"><path class="k" d="M1917.038,528.389a.5.5,0,0,1-.312-.11.538.538,0,0,1-.092-.739c.021-.032.757-1.174,2.9-8.094,1.926-6.218.642-7.711-2.172-10.984-.346-.4-.713-.829-1.1-1.291-3.03-3.65-3.079-4.074-2.664-7.533.075-.629.161-1.341.242-2.213a11.835,11.835,0,0,1,1.892-5.316c1.155-2.013,2.464-4.3,2.723-9.823.278-5.941-2.114-9.825-4.428-13.581a28.3,28.3,0,0,1-3.506-7.089c-1.961-6.893.761-13.653.878-13.937a.507.507,0,0,1,.67-.28.533.533,0,0,1,.272.69c-.027.066-2.694,6.706-.838,13.23a27.5,27.5,0,0,0,3.388,6.82c2.4,3.895,4.88,7.922,4.586,14.2-.271,5.789-1.648,8.19-2.864,10.309a10.8,10.8,0,0,0-1.754,4.88c-.083.886-.169,1.606-.245,2.242-.383,3.193-.4,3.317,2.426,6.718.38.457.743.879,1.085,1.277,2.891,3.363,4.483,5.216,2.38,12-2.222,7.171-2.986,8.311-3.066,8.417A.5.5,0,0,1,1917.038,528.389Z" transform="translate(-1909.817 -447.357)"/></g><g transform="translate(93.849 106.827)"><path class="k" d="M1952,620.619a.49.49,0,0,1-.192-.039.532.532,0,0,1-.282-.686c3.9-9.907,1.435-15,.251-17.444-.087-.179-.167-.345-.238-.5a31.116,31.116,0,0,0-3.206-4.412c-1.8-2.24-3.655-4.557-4.093-5.978-.571-1.856-.107-6.03.142-8.272.061-.549.124-1.115.126-1.278a.532.532,0,0,1,.275-.566.5.5,0,0,1,.686.235c.1.2.087.311-.071,1.729-.223,2.01-.688,6.192-.183,7.833.377,1.226,2.252,3.563,3.906,5.625a30.561,30.561,0,0,1,3.34,4.628c.069.148.147.309.231.483,1.251,2.585,3.853,7.962-.218,18.31A.511.511,0,0,1,1952,620.619Z" transform="translate(-1943.967 -581.391)"/></g><g transform="translate(51.92 57.763)"><path class="k" d="M1814.01,447.1h-.024a.522.522,0,0,1-.488-.551,162.876,162.876,0,0,0-.3-17.614.522.522,0,0,1,.467-.568.514.514,0,0,1,.552.482,164.009,164.009,0,0,1,.3,17.749A.519.519,0,0,1,1814.01,447.1Z" transform="translate(-1813.195 -428.366)"/></g><g transform="translate(44.325 24.682)"><path class="k" d="M1790.019,359.793a.507.507,0,0,1-.058,0,.524.524,0,0,1-.45-.583,158.029,158.029,0,0,0,.9-22.5c-.092-4.552-.159-7.84.636-11.116a.51.51,0,0,1,.62-.383.528.528,0,0,1,.372.639c-.762,3.139-.7,6.369-.606,10.838a158.931,158.931,0,0,1-.9,22.642A.517.517,0,0,1,1790.019,359.793Z" transform="translate(-1789.507 -325.191)"/></g><g transform="translate(37.355 64.965)"><path class="k" d="M1780.478,529.165a.487.487,0,0,1-.083-.007.525.525,0,0,1-.422-.605c.9-5.674-3.41-11.524-5.983-15.018a22.464,22.464,0,0,1-1.634-2.388c-.784-1.509.06-3.869,1.129-6.858a33.714,33.714,0,0,0,2.172-8.28c.307-3.548-1.6-6.459-3.617-9.542a30.047,30.047,0,0,1-3.882-7.374c-2.06-6.492,4.674-26.408,5.781-27.982a.588.588,0,0,1,.487-.286.52.52,0,0,1,.511.527.532.532,0,0,1-.2.415c-.947,1.481-7.576,20.807-5.612,27a29.226,29.226,0,0,0,3.757,7.112c2.122,3.242,4.127,6.3,3.788,10.224a34.553,34.553,0,0,1-2.231,8.551c-.941,2.631-1.754,4.9-1.187,6a22.268,22.268,0,0,0,1.547,2.249c2.672,3.629,7.144,9.7,6.177,15.825A.516.516,0,0,1,1780.478,529.165Z" transform="translate(-1767.768 -450.826)"/></g><g transform="translate(43.986 84.741)"><path class="k" d="M1801.236,568.346a.467.467,0,0,1-.075-.006.525.525,0,0,1-.431-.6c1.035-7.21-1.949-11.613-4.128-14.829a15.721,15.721,0,0,1-1.7-2.879c-.687-1.8.226-4.777,1.192-7.925.83-2.705,1.689-5.5,1.42-7.321-.373-2.526-3.569-6.749-5.9-9.833a31.678,31.678,0,0,1-2.772-3.977c-.932-1.946.018-5.053.585-6.909a9.637,9.637,0,0,0,.279-1.007.508.508,0,0,1,.465-.555.527.527,0,0,1,.555.495,4.587,4.587,0,0,1-.323,1.384c-.487,1.593-1.394,4.559-.644,6.126a32.435,32.435,0,0,0,2.662,3.8c2.537,3.352,5.693,7.523,6.107,10.322.3,2.06-.591,4.977-1.456,7.8s-1.77,5.766-1.215,7.222a15.16,15.16,0,0,0,1.584,2.66c2.148,3.17,5.4,7.962,4.3,15.587A.517.517,0,0,1,1801.236,568.346Z" transform="translate(-1788.449 -512.505)"/></g><g transform="translate(77.279 56.778)"><path class="k" d="M1893.026,448.058a.514.514,0,0,1-.491-.38c-.809-2.872.509-13.141,1.757-21.249.055-.36.09-.587.1-.652a.511.511,0,0,1,1.021.043,7.087,7.087,0,0,1-.11.774c-2.349,15.263-2.126,19.577-1.785,20.79a.53.53,0,0,1-.349.653A.5.5,0,0,1,1893.026,448.058Z" transform="translate(-1892.286 -425.293)"/></g><g transform="translate(63.405 38.325)"><path class="g" d="M1850.172,376.634a1.537,1.537,0,0,1-.8-.167.734.734,0,0,1-.335-.5c-.117-.662.321-6.1.458-7.751a.515.515,0,0,1,.553-.48.523.523,0,0,1,.466.57c-.249,3-.484,6.36-.48,7.277a9.516,9.516,0,0,0,2.453-.451.509.509,0,0,1,.632.362.529.529,0,0,1-.351.651A10.484,10.484,0,0,1,1850.172,376.634Z" transform="translate(-1849.015 -367.739)"/></g><g transform="translate(75.283 169.101)"><path class="g" d="M1898.929,783.828a.5.5,0,0,1-.267-.078c-2.042-1.29-11.425-6.851-12.2-7.1a.526.526,0,0,1,.227-1.027c.863.188,11.357,6.5,12.511,7.225a.536.536,0,0,1,.169.725A.507.507,0,0,1,1898.929,783.828Z" transform="translate(-1886.061 -775.615)"/></g><path class="m" d="M1787.552,284.725c.553-3.972,1.536-9.823,3.247-13.441,2.062-4.36,6.1-6.876,10.653-8.057,8.012-2.076,20.73-1.427,25.1,3.024,2,2.032,3.194,3.122,3.717,9.316a158.027,158.027,0,0,0,1.949,15.983c.173.9.561.093.334.991-.114.45-.352.853-.911.87a.907.907,0,0,1-.911-.649c-.311-.912-.975,1.041-1.036.08-.288-4.531-.2-13.5-3.186-20.4-1.191-2.751-4.161-5.579-9.8-6.146a40.52,40.52,0,0,0-14.4.665c-3.931.947-7.306,2.695-9.29,6.728-2.335,4.747-4.261,13.29-3.654,18.126a7.356,7.356,0,0,1-1.386,5.011h-.682a13.264,13.264,0,0,0-.17-2.184C1786.833,293.436,1787.321,286.382,1787.552,284.725Z" transform="translate(-1743.502 -257.642)"/><path class="n" d="M1782.791,347.089c1.543.319,2.7,2.694,3.068,4.029a119.083,119.083,0,0,1,2.959,12.9c.327,2.049-.971,6.086-3.216,3.249a18.05,18.05,0,0,1-3.546-7.532c-.391-1.931-1.655-8.935-1.655-9.755,0-.984-.027-1.882.879-2.52A1.893,1.893,0,0,1,1782.791,347.089Z" transform="translate(-1738.995 -315.361)"/><path class="m" d="M1777.608,349.955c.57.215.942,1.637,1.137,2.133.607,1.539,1.118,3.119,1.6,4.7a59.488,59.488,0,0,1,2.454,10.235c.044.372.3,1.615-.037,1.926-.427.394-2.4-.9-2.835-1.179a10.951,10.951,0,0,1-4.849-7.664C1775.033,359.788,1773.574,352.429,1777.608,349.955Z" transform="translate(-1735.181 -317.332)"/><path class="m" d="M1783.73,395.655a1.345,1.345,0,0,1,.115-.178c.317-.415.977-.71,1.4-.275.453.467.471,1.657.576,2.285.411,2.442.154,4.8,2.04,6.627a14.29,14.29,0,0,0,5.485,2.926c.881.3,1.773.56,2.66.836a1.671,1.671,0,0,0,1.549-.313,4.724,4.724,0,0,1,5.3.164,2.093,2.093,0,0,1,1.141,2.234,2.67,2.67,0,0,1-3.28,1.951c-2.047-.413-3.809-1.784-5.831-2.312a27.415,27.415,0,0,1-5.976-2.408,8.778,8.778,0,0,1-3.75-3.61,19.846,19.846,0,0,1-1.587-6.437A2.564,2.564,0,0,1,1783.73,395.655Z" transform="translate(-1741.123 -347.926)"/><g transform="translate(42.971 34.561)"><path class="o" d="M1789.386,371.589a.518.518,0,0,1-.509-.478,62.224,62.224,0,0,0-3.524-14.332.525.525,0,0,1,.19-.71.513.513,0,0,1,.7.2,62.65,62.65,0,0,1,3.648,14.742.523.523,0,0,1-.462.574Z" transform="translate(-1785.285 -356.001)"/></g><path class="n" d="M1914.488,350.2v2.108c-.814.345-.6,1.149-.7,1.775-.859,5.518-1.743,11.016-6.459,14.736-1.482.7-1.821-1.221-1.818-1.932a57.862,57.862,0,0,1,2.6-17.115c.682-2.208,2.012-2.4,3.785-2.4,1.318.006,1.339,1.232,1.905,1.944C1914.031,349.613,1913.948,350.163,1914.488,350.2Z" transform="translate(-1823.992 -315.581)"/><path class="m" d="M1918.592,348.61c.944-.531,2.686,1.887,3.156,2.6,2.112,3.193.816,9.261-1.321,13a7.249,7.249,0,0,1-5.412,3.908C1914.815,367.529,1917.761,349.078,1918.592,348.61Z" transform="translate(-1830.442 -316.367)"/><g transform="translate(84.632 32.763)"><path class="o" d="M1915.732,367.483h-.031a.522.522,0,0,1-.48-.557,67.409,67.409,0,0,1,2.589-15.741c.046-.152.08-.258.1-.318a.524.524,0,0,1,.347-.445.507.507,0,0,1,.647.333c.059.182.033.268-.114.747a66.368,66.368,0,0,0-2.544,15.485A.518.518,0,0,1,1915.732,367.483Z" transform="translate(-1915.22 -350.394)"/></g></g></g></g></svg>