<svg xmlns="http://www.w3.org/2000/svg" width="62" height="62" viewBox="0 0 62 62"><defs><style>.a,.b{fill:#32cc70;}.a{opacity:0.1;}</style></defs><g transform="translate(-264 -257)"><circle class="a" cx="31" cy="31" r="31" transform="translate(264 257)"/><path class="b" d="M8.313,9.5a4.75,4.75,0,1,0-4.75-4.75A4.75,4.75,0,0,0,8.313,9.5Zm3.325,1.188h-.62a6.46,6.46,0,0,1-5.411,0h-.62A4.989,4.989,0,0,0,0,15.675v1.544A1.782,1.782,0,0,0,1.781,19H14.844a1.782,1.782,0,0,0,1.781-1.781V15.675A4.989,4.989,0,0,0,11.637,10.688Z" transform="translate(287 279)"/></g></svg>