<svg xmlns="http://www.w3.org/2000/svg" width="773" height="662.665" viewBox="0 0 773 662.665"><defs><style>.a{fill:#f6f6f6;}.b{fill:#f2f9fc;}.c{fill:#fcfcfc;stroke:#e4e4e4;stroke-width:0.1px;}.d{fill:#fefefe;}.e{fill:#82caf9;}.f{fill:#0089e1;}.g{fill:#f1f1fb;}.h{fill:#d6e5fb;}.i{fill:#466288;}.j{fill:#354a67;}.k{fill:#4bbefd;}.l{fill:#0590fb;}.m{stroke:none;}.n{fill:none;}</style></defs><g transform="translate(70 -315.335)"><g transform="translate(24 -23)"><circle class="a" cx="78.5" cy="78.5" r="78.5" transform="translate(-52 473)"/><circle class="a" cx="78.5" cy="78.5" r="78.5" transform="translate(37 556)"/><circle class="a" cx="52.5" cy="52.5" r="52.5" transform="translate(157 591)"/><circle class="a" cx="52.5" cy="52.5" r="52.5" transform="translate(329 758)"/><circle class="a" cx="57.5" cy="57.5" r="57.5" transform="translate(417 738)"/><circle class="a" cx="57.5" cy="57.5" r="57.5" transform="translate(523 766)"/><circle class="a" cx="94" cy="94" r="94" transform="translate(194 649)"/><path class="a" d="M3657,3803v390h628l-116-115-176-26-188-181Z" transform="translate(-3682 -3256)"/></g><g transform="translate(-487 -322)"><circle class="b" cx="57.5" cy="57.5" r="57.5" transform="translate(417 738)"/><circle class="b" cx="57.5" cy="57.5" r="57.5" transform="translate(480 785)"/></g><path class="c" d="M3982.25,3694.75,3967,4052.69h48.25l-23-357.94Z" transform="translate(-3692 -3330.441)"/><g transform="translate(321 141)"><circle class="b" cx="78.5" cy="78.5" r="78.5" transform="translate(-52 473)"/><circle class="b" cx="78.5" cy="78.5" r="78.5" transform="translate(37 556)"/><circle class="b" cx="52.5" cy="52.5" r="52.5" transform="translate(157 591)"/><circle class="b" cx="94" cy="94" r="94" transform="translate(194 649)"/></g><circle class="d" cx="78.5" cy="78.5" r="78.5" transform="translate(-52 473)"/><circle class="d" cx="78.5" cy="78.5" r="78.5" transform="translate(37 556)"/><circle class="d" cx="52.5" cy="52.5" r="52.5" transform="translate(157 591)"/><circle class="d" cx="52.5" cy="52.5" r="52.5" transform="translate(329 758)"/><circle class="d" cx="57.5" cy="57.5" r="57.5" transform="translate(417 738)"/><circle class="d" cx="57.5" cy="57.5" r="57.5" transform="translate(480 785)"/><circle class="d" cx="94" cy="94" r="94" transform="translate(194 649)"/><path class="d" d="M3657,3803v390h628l-116-115-176-26-188-181Z" transform="translate(-3682 -3256)"/><g transform="translate(241.577 368.756) rotate(-45)"><path class="e" d="M34.873,1.147a2.361,2.361,0,0,0-2.2-1.14L13.5,1.487A6.224,6.224,0,0,0,8.76,4.278L.717,16.443A4.311,4.311,0,0,0,3.653,23.08l15.54,2.407a2.356,2.356,0,0,0,2.348-1.06l13.295-20.8A2.359,2.359,0,0,0,34.873,1.147Z" transform="translate(0 21.498)"/><path class="f" d="M24.368.335a2.359,2.359,0,0,0-2.482.036L1.088,13.666A2.359,2.359,0,0,0,.028,16.014l2.407,15.54a4.308,4.308,0,0,0,6.638,2.936l12.165-8.043a6.222,6.222,0,0,0,2.79-4.742L25.508,2.54A2.358,2.358,0,0,0,24.368.335Z" transform="translate(28.538 40.343)"/><path class="g" d="M15.858,64.818a4.114,4.114,0,0,0,3.582,1.159c19.2-3.21,34.391-19.106,40.174-30.288C66.036,23.273,66.274,10.152,65.938,4a4.134,4.134,0,0,0-3.9-3.9C55.88-.241,42.759,0,30.343,6.419,19.161,12.2,3.265,27.394.055,46.593a4.114,4.114,0,0,0,1.159,3.581Z" transform="translate(9.516 0)"/><path class="h" d="M56.2,0,0,56.2,7.322,63.52A4.115,4.115,0,0,0,10.9,64.678C30.1,61.468,45.3,45.573,51.08,34.391,57.5,21.974,57.74,8.853,57.4,2.7A4.127,4.127,0,0,0,56.2,0Z" transform="translate(18.052 1.299)"/><path class="i" d="M11.792,23.573a11.783,11.783,0,1,1,8.338-3.448A11.753,11.753,0,0,1,11.792,23.573ZM5.122,5.116h0Z" transform="translate(38.402 13.57)"/><path class="i" d="M.055,11.908a4.114,4.114,0,0,0,1.159,3.582L15.859,30.134a4.114,4.114,0,0,0,3.582,1.159,47.144,47.144,0,0,0,11.908-3.719L3.774,0A47.143,47.143,0,0,0,.055,11.908Z" transform="translate(9.516 34.687)"/><path class="j" d="M0,9.025l7.322,7.322A4.114,4.114,0,0,0,10.9,17.506a47.143,47.143,0,0,0,11.908-3.719L9.025,0Z" transform="translate(18.052 48.474)"/><path class="j" d="M0,16.676a11.805,11.805,0,0,0,16.676,0A11.792,11.792,0,0,0,16.676,0Z" transform="translate(41.856 17.018)"/><path class="k" d="M7.075,0a7.069,7.069,0,1,0,5,2.069A7.052,7.052,0,0,0,7.075,0Z" transform="translate(43.119 18.285)"/><path class="l" d="M10.006,0,0,10.006A7.075,7.075,0,1,0,10.006,0Z" transform="translate(45.192 20.354)"/></g><g class="c" transform="translate(274 514)"><circle class="m" cx="2" cy="2" r="2"/><circle class="n" cx="2" cy="2" r="1.95"/></g><g class="c" transform="translate(314 503)"><circle class="m" cx="2" cy="2" r="2"/><circle class="n" cx="2" cy="2" r="1.95"/></g><g class="c" transform="translate(309 415)"><circle class="m" cx="2" cy="2" r="2"/><circle class="n" cx="2" cy="2" r="1.95"/></g><g class="c" transform="translate(297 407)"><circle class="m" cx="2" cy="2" r="2"/><circle class="n" cx="2" cy="2" r="1.95"/></g><g class="c" transform="translate(281 421)"><circle class="m" cx="2" cy="2" r="2"/><circle class="n" cx="2" cy="2" r="1.95"/></g><g class="c" transform="translate(293 552)"><circle class="m" cx="2" cy="2" r="2"/><circle class="n" cx="2" cy="2" r="1.95"/></g><g class="c" transform="translate(270 582)"><circle class="m" cx="2" cy="2" r="2"/><circle class="n" cx="2" cy="2" r="1.95"/></g><g class="c" transform="translate(319 558)"><circle class="m" cx="2" cy="2" r="2"/><circle class="n" cx="2" cy="2" r="1.95"/></g><g class="c" transform="translate(285 408)"><circle class="m" cx="2" cy="2" r="2"/><circle class="n" cx="2" cy="2" r="1.95"/></g></g></svg>