<svg xmlns="http://www.w3.org/2000/svg" width="130.492" height="120" viewBox="0 0 130.492 120"><defs><style>.a{fill:#ebf9ff;mix-blend-mode:multiply;isolation:isolate;}.b{fill:#f0f0f0;}.c,.k{fill:#fff;}.d{fill:none;stroke:#e5e5e5;stroke-width:4px;}.d,.k{stroke-miterlimit:10;}.e{fill:#0089e1;}.f{fill:#ccc;}.g{fill:#e6e6e6;}.h{fill:#dedede;}.i{fill:#47c431;}.j{opacity:0.07;}.k{stroke:#ededed;stroke-width:0.25px;}.l{fill:#eef0f7;}.m{fill:#67abdf;}.n{fill:#385988;}.o{fill:#4772b0;}.p{fill:#5886c7;}.q{fill:#78c2ff;}</style></defs><g transform="translate(-504.958 -289.681)"><ellipse class="a" cx="53.339" cy="53.419" rx="53.339" ry="53.419" transform="translate(528.771 301.295)"/><circle class="a" cx="40.743" cy="40.743" r="40.743" transform="translate(512.37 289.681)"/><circle class="a" cx="40.743" cy="40.743" r="40.743" transform="translate(504.958 328.194)"/><g transform="translate(518.356 320.392)"><path class="b" d="M33.436,0H61.357A33.435,33.435,0,0,1,94.792,33.435v0A33.436,33.436,0,0,1,61.356,66.871H33.435A33.435,33.435,0,0,1,0,33.436v0A33.436,33.436,0,0,1,33.436,0Z" transform="translate(94.792 66.871) rotate(180)"/></g><g transform="translate(522.068 313.249)"><rect class="c" width="87.367" height="63.509" transform="translate(87.367 63.509) rotate(180)"/></g><rect class="d" width="26.038" height="48.793" rx="13.019" transform="translate(579.393 324.475)"/><g transform="translate(522.068 313.216)"><rect class="e" width="87.367" height="7.671" transform="translate(87.367 7.671) rotate(180)"/></g><g transform="translate(598.936 378.554)"><path class="f" d="M1513.1,1501.412a3.643,3.643,0,1,0,3.6-3.058A3.359,3.359,0,0,0,1513.1,1501.412Z" transform="translate(-1513.104 -1498.354)"/></g><rect class="c" width="12.461" height="2.899" rx="1.449" transform="translate(525.748 315.604)"/><rect class="g" width="40.863" height="1.572" transform="translate(533.404 347.659)"/><rect class="g" width="30.307" height="1.572" transform="translate(533.398 350.494)"/><rect class="g" width="19.217" height="1.572" transform="translate(533.393 356.656)"/><rect class="g" width="34.525" height="1.572" transform="translate(533.4 359.492)"/><rect class="g" width="32.343" height="1.572" transform="translate(533.399 366.267)"/><rect class="g" width="39.494" height="1.572" transform="translate(533.403 369.103)"/><g transform="translate(529.06 328.312)"><g transform="translate(0 0)"><g transform="translate(0 1.188)"><rect class="h" width="1.501" height="10.69"/></g><g transform="translate(3.727 3.361)"><rect class="h" width="1.5" height="8.518"/></g><g transform="translate(7.453 1.762)"><rect class="h" width="1.501" height="10.116"/></g><g transform="translate(11.179 4.918)"><rect class="h" width="1.501" height="6.96"/></g><g transform="translate(14.906 2.09)"><rect class="h" width="1.501" height="9.788"/></g><g transform="translate(18.632 0.615)"><rect class="h" width="1.501" height="11.263"/></g><g transform="translate(22.359)"><rect class="h" width="1.501" height="11.878"/></g><g transform="translate(0 5.172)"><rect class="i" width="1.501" height="6.706"/></g><g transform="translate(3.727 6.535)"><rect class="i" width="1.5" height="5.344"/></g><g transform="translate(7.453 5.532)"><rect class="i" width="1.501" height="6.347"/></g><g transform="translate(11.179 7.512)"><rect class="i" width="1.501" height="4.367"/></g><g transform="translate(14.906 5.738)"><rect class="i" width="1.501" height="6.141"/></g><g transform="translate(18.632 4.812)"><rect class="i" width="1.501" height="7.066"/></g><g transform="translate(22.359 4.426)"><rect class="i" width="1.501" height="7.452"/></g></g><g transform="translate(26.47 1.188)"><rect class="h" width="1.501" height="10.69"/></g><g transform="translate(30.197 3.361)"><rect class="h" width="1.501" height="8.518"/></g><g transform="translate(33.923 1.762)"><rect class="h" width="1.501" height="10.116"/></g><g transform="translate(37.65 4.918)"><rect class="h" width="1.501" height="6.96"/></g><g transform="translate(26.47 5.172)"><rect class="i" width="1.501" height="6.706"/></g><g transform="translate(30.197 6.535)"><rect class="i" width="1.501" height="5.344"/></g><g transform="translate(33.923 5.532)"><rect class="i" width="1.501" height="6.347"/></g><g transform="translate(37.65 7.512)"><rect class="i" width="1.501" height="4.367"/></g></g><g transform="translate(587.848 339.856)"><rect class="j" width="26.038" height="48.793" rx="13.019" transform="translate(0 2.789)"/><rect class="k" width="26.038" height="48.793" rx="13.019" transform="translate(1.889)"/><g transform="translate(5.068 5.196)"><rect class="g" width="19.418" height="1.572" transform="translate(0 15.316)"/><rect class="g" width="14.402" height="1.572" transform="translate(5.016 18.148)"/><g transform="translate(4.349)"><path class="l" d="M1503.883,1078.381a6.072,6.072,0,1,1-6.072-6.072A6.047,6.047,0,0,1,1503.883,1078.381Z" transform="translate(-1491.739 -1072.309)"/><path class="e" d="M1517.006,1112.857a.744.744,0,0,0-.1-.06l-.005,0h0a12.88,12.88,0,0,0-2.588-.977h0c-.28-.085-.491-.141-.563-.159l-.13-.208a6.411,6.411,0,0,1-.011-.731,2.584,2.584,0,0,0,.523-1.259c.035.026.062-.031.062-.031-.02-.035.293-.8.237-.969-.032-.1-.1-.085-.147-.057.008-.044.016-.091.023-.14a2.683,2.683,0,0,0-.468-1.821.654.654,0,0,0-.279-.073,2.6,2.6,0,0,0-1.878-.008,1.889,1.889,0,0,0-.545,1.578c.011.1.022.193.032.287a.008.008,0,0,0,0,0c0,.038.009.074.013.111-.049-.031-.114-.046-.15.05a2.91,2.91,0,0,0,.2.978s.05.078.089.043v0a2.8,2.8,0,0,0,.513,1.337c-.015.271-.054.591-.082.795l-.235.245h0l-.037.012v0a13.763,13.763,0,0,0-3.409,1.2.707.707,0,0,0-.2.315,6.073,6.073,0,0,0,9.454.194A2.5,2.5,0,0,0,1517.006,1112.857Z" transform="translate(-1506.591 -1103.529)"/></g></g><path class="e" d="M1440.545,1459.428a2.884,2.884,0,0,0,3.59-.245c1.764-1.574,3.8-2.1,5.6-.774s2.5-.494,4.3-1.984,1.77-2.339,4.434-2.339v9.484h-17.92Z" transform="translate(-1435.153 -1418.875)"/><g transform="translate(5.791 28.058)"><path class="m" d="M1452.761,1365.554a3.679,3.679,0,1,0-6.928,2.478c.028.078.058.155.091.229a3.679,3.679,0,0,0,6.838-2.707Zm-2.535,3.836a2.756,2.756,0,0,1-3.458-1.5c-.024-.056-.047-.114-.068-.172a2.758,2.758,0,1,1,3.526,1.668Z" transform="translate(-1445.617 -1363.113)"/><g transform="translate(0.168 0.002)"><path class="n" d="M1448.633,1365.99l-.879-.274a3.684,3.684,0,0,1,3.4-2.582l.027.92a2.764,2.764,0,0,0-2.551,1.936Z" transform="translate(-1447.754 -1363.134)"/></g><g transform="translate(0 2.584)"><path class="o" d="M1446.768,1398.173l-.844.367c-.032-.074-.063-.152-.091-.229a3.664,3.664,0,0,1-.048-2.335l.879.274a2.747,2.747,0,0,0,.036,1.751C1446.721,1398.06,1446.744,1398.117,1446.768,1398.173Z" transform="translate(-1445.617 -1395.976)"/></g><g transform="translate(0.307 4.781)"><path class="p" d="M1450.086,1425.21a3.662,3.662,0,0,1-.57-.916l.845-.367a2.743,2.743,0,0,0,.427.687Z" transform="translate(-1449.516 -1423.927)"/></g></g><ellipse class="n" cx="0.743" cy="0.743" rx="0.743" ry="0.743" transform="translate(15.051 28.882)"/><ellipse class="q" cx="0.743" cy="0.743" rx="0.743" ry="0.743" transform="translate(15.051 31.011)"/><ellipse class="q" cx="0.743" cy="0.743" rx="0.743" ry="0.743" transform="translate(15.051 33.141)"/><rect class="g" width="6.397" height="0.726" transform="translate(17.893 29.228)"/><rect class="g" width="6.397" height="0.726" transform="translate(17.893 31.403)"/><rect class="g" width="6.397" height="0.726" transform="translate(17.893 33.578)"/></g><g transform="translate(528.641 347.817)"><path class="l" d="M623.478,1109.583a1.629,1.629,0,1,1-1.629-1.629A1.623,1.623,0,0,1,623.478,1109.583Z" transform="translate(-620.221 -1107.954)"/><path class="q" d="M627,1118.829a.235.235,0,0,0-.027-.016h0a3.458,3.458,0,0,0-.694-.262h0c-.075-.023-.132-.038-.151-.043l-.035-.056a1.752,1.752,0,0,1,0-.2.693.693,0,0,0,.14-.338c.009.007.017-.008.017-.008s.079-.214.064-.26c-.009-.026-.026-.023-.04-.015l.006-.037a.72.72,0,0,0-.126-.489.177.177,0,0,0-.075-.02.7.7,0,0,0-.5,0,.507.507,0,0,0-.146.423l.009.077h0l0,.03c-.013-.008-.031-.012-.04.014a.78.78,0,0,0,.053.263s.013.021.024.011h0a.749.749,0,0,0,.137.358c0,.073-.014.159-.022.214l-.063.066h0l-.01,0h0a3.7,3.7,0,0,0-.914.323.19.19,0,0,0-.055.085,1.629,1.629,0,0,0,2.536.052A.664.664,0,0,0,627,1118.829Z" transform="translate(-624.204 -1116.328)"/></g><g transform="translate(528.641 356.37)"><path class="l" d="M623.478,1218.233a1.629,1.629,0,1,1-1.629-1.629A1.622,1.622,0,0,1,623.478,1218.233Z" transform="translate(-620.221 -1216.604)"/><path class="q" d="M627,1227.48a.2.2,0,0,0-.027-.016h0a3.451,3.451,0,0,0-.694-.262h0c-.075-.023-.132-.038-.151-.043l-.035-.056a1.752,1.752,0,0,1,0-.2.694.694,0,0,0,.14-.338c.009.007.017-.008.017-.008s.079-.214.064-.26c-.009-.026-.026-.023-.04-.015l.006-.037a.72.72,0,0,0-.126-.489.174.174,0,0,0-.075-.02.7.7,0,0,0-.5,0,.507.507,0,0,0-.146.423l.009.077h0l0,.03a.024.024,0,0,0-.04.014.776.776,0,0,0,.053.262s.013.021.024.011h0a.751.751,0,0,0,.137.359c0,.073-.014.159-.022.213l-.063.066h0l-.01,0h0a3.682,3.682,0,0,0-.914.323.189.189,0,0,0-.055.084,1.629,1.629,0,0,0,2.536.052A.675.675,0,0,0,627,1227.48Z" transform="translate(-624.204 -1224.978)"/></g><g transform="translate(528.641 365.948)"><path class="l" d="M623.478,1339.9a1.629,1.629,0,1,1-1.629-1.629A1.622,1.622,0,0,1,623.478,1339.9Z" transform="translate(-620.221 -1338.268)"/><path class="q" d="M627,1349.144a.2.2,0,0,0-.027-.016h0a3.431,3.431,0,0,0-.694-.262h0c-.075-.023-.132-.038-.151-.043l-.035-.056a1.752,1.752,0,0,1,0-.2.694.694,0,0,0,.14-.338c.009.007.017-.008.017-.008s.079-.214.064-.26c-.009-.026-.026-.023-.04-.015l.006-.038a.72.72,0,0,0-.126-.489.176.176,0,0,0-.075-.02.7.7,0,0,0-.5,0,.507.507,0,0,0-.146.423l.009.077h0l0,.03c-.013-.008-.031-.012-.04.014a.78.78,0,0,0,.053.263s.013.021.024.011h0a.751.751,0,0,0,.137.358c0,.073-.014.159-.022.213l-.063.066h0l-.01,0h0a3.682,3.682,0,0,0-.914.323.19.19,0,0,0-.055.084,1.628,1.628,0,0,0,2.536.052A.668.668,0,0,0,627,1349.144Z" transform="translate(-624.204 -1346.642)"/></g></g></svg>