<svg xmlns="http://www.w3.org/2000/svg" width="160.221" height="121" viewBox="0 0 160.221 121"><defs><style>.a{mix-blend-mode:multiply;isolation:isolate;}.b{fill:#ebf9ff;}.c{fill:#f0f0f0;}.d{fill:#fff;}.e{fill:#0089e1;}.f{fill:#ccc;}.g{fill:#67abdf;}.h{fill:#385988;}.i{fill:#4772b0;}.j{fill:#5886c7;}.k{fill:#78c2ff;}.l{fill:#e6e6e6;}.m{fill:#1a2e35;}.n{fill:#efefef;}.o{fill:#47c431;}.p{fill:#d39040;}.q{fill:#261e1b;}</style></defs><g transform="translate(4127.577 -702.902)"><g transform="translate(-4127.577 702.902)"><g class="a"><path class="b" d="M-3972.093,789.508a50.439,50.439,0,0,0-22.973-44.944,10.68,10.68,0,0,1-4.786-7.787q-.029-.258-.061-.517c-2.628-21.063-22.314-35.859-43.282-33.006-20.057,2.729-34.5,13.327-32.362,33.737.01.1.021.236.033.412a9.747,9.747,0,0,1-9.549,10.37q-1.747.042-3.518.225a43.585,43.585,0,0,0-38.737,48.011,43.523,43.523,0,0,0,13.917,27.541h124.729C-3979.2,814.478-3972.647,801.891-3972.093,789.508Z" transform="translate(4127.576 -702.902)"/></g><g class="a" transform="translate(27.571 18.104)"><path class="b" d="M-3682.657,981.843a43.016,43.016,0,0,0-19.592-38.331,9.108,9.108,0,0,1-4.082-6.641q-.025-.22-.052-.441A32.767,32.767,0,0,0-3743.3,908.28c-17.1,2.328-29.419,11.366-27.6,28.773.009.082.018.2.028.352a8.313,8.313,0,0,1-8.144,8.844q-1.49.036-3,.192a37.171,37.171,0,0,0-33.037,40.946,37.115,37.115,0,0,0,11.869,23.489H-3696.8C-3688.718,1003.138-3683.13,992.4-3682.657,981.843Z" transform="translate(3815.261 -907.98)"/></g></g><g transform="translate(-4093.587 748.449)"><path class="c" d="M37.545,0H68.9a37.544,37.544,0,0,1,37.544,37.544v0A37.545,37.545,0,0,1,68.9,75.089H37.544A37.544,37.544,0,0,1,0,37.545v0A37.545,37.545,0,0,1,37.545,0Z" transform="translate(106.442 75.089) rotate(180)"/></g><g transform="translate(-4089.419 740.457)"><rect class="d" width="98.104" height="71.314" transform="translate(98.104 71.314) rotate(180)"/></g><g transform="translate(-4089.419 740.457)"><rect class="e" width="98.104" height="8.613" transform="translate(98.104 8.613) rotate(180)"/></g><g transform="translate(-4003.253 813.722)"><path class="f" d="M-2719.254,1961.7c0,1.9,1.807,3.433,4.037,3.433s4.037-1.537,4.037-3.433-1.808-3.433-4.037-3.433S-2719.254,1959.8-2719.254,1961.7Z" transform="translate(2719.254 -1958.262)"/></g><rect class="d" width="13.992" height="3.255" rx="1.627" transform="translate(-4085.321 743.137)"/><path class="e" d="M-3295.237,1702.808s5.815,3.668,11.435-.677,12.1-5.8,17.831-2.137,7.96,3.934,13.691-.181,5.637-6.456,14.122-6.456v20.883h-57.078Z" transform="translate(-758.862 -903.02)"/><g transform="translate(-4054.541 756.809)"><g transform="translate(0 0)"><path class="g" d="M-3284.2,1319.035a8.261,8.261,0,0,0-8.021-5.476,8.251,8.251,0,0,0-2.534.481,8.245,8.245,0,0,0-5.1,5.314,8.221,8.221,0,0,0,.108,5.241c.063.175.131.347.2.515a8.219,8.219,0,0,0,1.28,2.056,8.26,8.26,0,0,0,9.072,2.424A8.257,8.257,0,0,0-3284.2,1319.035Zm-5.689,8.61a6.194,6.194,0,0,1-6.8-1.817,6.156,6.156,0,0,1-.959-1.541c-.055-.126-.106-.255-.153-.386a6.166,6.166,0,0,1-.081-3.93,6.18,6.18,0,0,1,3.825-3.984,6.2,6.2,0,0,1,1.9-.361,6.194,6.194,0,0,1,6.014,4.1A6.191,6.191,0,0,1-3289.888,1327.645Z" transform="translate(3300.233 -1313.556)"/></g><g transform="translate(0.377 0.004)"><path class="h" d="M-3293.988,1320.009l-1.973-.616a8.245,8.245,0,0,1,5.1-5.314,8.247,8.247,0,0,1,2.533-.481l.062,2.066a6.2,6.2,0,0,0-1.9.361A6.18,6.18,0,0,0-3293.988,1320.009Z" transform="translate(3295.961 -1313.598)"/></g><g transform="translate(0 5.799)"><path class="i" d="M-3297.65,1384.173l-1.9.825c-.073-.168-.141-.34-.2-.515a8.221,8.221,0,0,1-.108-5.241l1.973.616a6.166,6.166,0,0,0,.081,3.93C-3297.755,1383.917-3297.7,1384.047-3297.65,1384.173Z" transform="translate(3300.233 -1379.241)"/></g><g transform="translate(0.688 10.73)"><path class="j" d="M-3291.16,1437.987a8.218,8.218,0,0,1-1.28-2.056l1.9-.825a6.165,6.165,0,0,0,.959,1.541Z" transform="translate(3292.44 -1435.107)"/></g></g><circle class="h" cx="1.667" cy="1.667" r="1.667" transform="translate(-4033.758 758.658)"/><circle class="k" cx="1.667" cy="1.667" r="1.667" transform="translate(-4033.758 763.437)"/><circle class="k" cx="1.667" cy="1.667" r="1.667" transform="translate(-4033.758 768.216)"/><rect class="l" width="30.094" height="1.629" transform="translate(-4027.378 759.433)"/><rect class="l" width="30.094" height="1.629" transform="translate(-4027.378 764.315)"/><rect class="l" width="30.094" height="1.629" transform="translate(-4027.378 769.196)"/><rect class="l" width="56.89" height="1.629" transform="translate(-4054.234 778.642)"/><rect class="l" width="17.75" height="1.629" transform="translate(-4054.234 782.692)"/><rect class="l" width="17.75" height="1.629" transform="translate(-4054.234 786.495)"/><rect class="l" width="17.75" height="1.629" transform="translate(-4034.452 782.692)"/><rect class="l" width="17.75" height="1.629" transform="translate(-4034.452 786.495)"/><g transform="translate(-3996.195 771.509)"><g transform="translate(0 0)"><g transform="translate(2.107)"><path class="m" d="M-2603.306,1496.065h-1.824v-9.928a4.243,4.243,0,0,0-4.238-4.238,4.243,4.243,0,0,0-4.238,4.238v9.928h-1.824v-9.928a6.069,6.069,0,0,1,6.062-6.062,6.069,6.069,0,0,1,6.062,6.062Z" transform="translate(2615.43 -1480.075)"/></g><g transform="translate(0 11.573)"><rect class="e" width="16.338" height="10.482" rx="5.241"/></g><g transform="translate(6.804 14.083)"><path class="m" d="M-2559.5,1640.974a1.366,1.366,0,0,1-1.365,1.366,1.366,1.366,0,0,1-1.366-1.366,1.366,1.366,0,0,1,1.366-1.366A1.366,1.366,0,0,1-2559.5,1640.974Z" transform="translate(2562.232 -1639.608)"/><g transform="translate(0.993 1.907)"><rect class="m" width="0.745" height="2.809"/></g></g></g></g><rect class="l" width="17.75" height="1.629" transform="translate(-4014.92 782.692)"/><rect class="l" width="17.75" height="1.629" transform="translate(-4014.92 786.495)"/><rect class="n" width="27.048" height="62.016" transform="translate(-4088.662 749.071)"/><g transform="translate(-4086.201 752.115)"><rect class="l" width="21.804" height="1.766" transform="translate(0 19.547)"/><rect class="l" width="16.172" height="1.766" transform="translate(5.632 22.727)"/><g transform="translate(2.672 0)"><path class="g" d="M-3611.477,1268.948a8.534,8.534,0,0,1-2.008,5.511,8.548,8.548,0,0,1-6.559,3.056,8.553,8.553,0,0,1-6.779-3.329,8.526,8.526,0,0,1-1.788-5.238,8.567,8.567,0,0,1,8.567-8.568A8.567,8.567,0,0,1-3611.477,1268.948Z" transform="translate(3628.611 -1260.381)"/></g></g><g transform="translate(-4014.907 717.195)"><path class="k" d="M-2830.779,873.259l-1.365-.547a9.042,9.042,0,0,0-.736-1.777l.579-1.351a.654.654,0,0,0-.138-.72l-1.979-1.979a.659.659,0,0,0-.719-.139l-1.351.579a8.975,8.975,0,0,0-1.778-.736l-.546-1.365a.653.653,0,0,0-.607-.411h-2.8a.653.653,0,0,0-.607.411l-.546,1.365a8.968,8.968,0,0,0-1.779.736l-1.351-.579a.659.659,0,0,0-.719.139l-1.979,1.979a.654.654,0,0,0-.138.72l.579,1.351a9.074,9.074,0,0,0-.736,1.777l-1.365.547a.653.653,0,0,0-.41.606v2.8a.653.653,0,0,0,.41.606l1.365.547a9.06,9.06,0,0,0,.736,1.777l-.579,1.351a.654.654,0,0,0,.138.72l1.979,1.979a.659.659,0,0,0,.719.139l1.351-.579a8.964,8.964,0,0,0,1.779.736l.546,1.365a.653.653,0,0,0,.607.411h2.8a.653.653,0,0,0,.607-.411l.546-1.365a8.975,8.975,0,0,0,1.778-.736l1.351.579a.659.659,0,0,0,.719-.139l1.979-1.979a.654.654,0,0,0,.138-.72l-.579-1.351a9.042,9.042,0,0,0,.736-1.777l1.365-.547a.654.654,0,0,0,.41-.606v-2.8A.654.654,0,0,0-2830.779,873.259Zm-.9,2.964-1.256.5a.653.653,0,0,0-.391.445,7.7,7.7,0,0,1-.848,2.049.654.654,0,0,0-.039.592l.533,1.243-1.354,1.354-1.244-.533a.659.659,0,0,0-.592.04,7.744,7.744,0,0,1-2.049.85.652.652,0,0,0-.446.39l-.5,1.256h-1.915l-.5-1.256a.653.653,0,0,0-.446-.39,7.744,7.744,0,0,1-2.049-.85.659.659,0,0,0-.592-.04l-1.243.533-1.354-1.354.533-1.243a.655.655,0,0,0-.039-.592,7.7,7.7,0,0,1-.848-2.049.653.653,0,0,0-.39-.445l-1.256-.5v-1.916l1.256-.5a.653.653,0,0,0,.39-.445,7.7,7.7,0,0,1,.848-2.049.655.655,0,0,0,.039-.592l-.533-1.243,1.354-1.354,1.243.533a.659.659,0,0,0,.592-.04,7.743,7.743,0,0,1,2.049-.85.653.653,0,0,0,.446-.391l.5-1.255h1.915l.5,1.255a.652.652,0,0,0,.446.391,7.739,7.739,0,0,1,2.049.85.659.659,0,0,0,.592.04l1.244-.533,1.354,1.354-.533,1.243a.654.654,0,0,0,.039.592,7.7,7.7,0,0,1,.848,2.049.653.653,0,0,0,.391.445l1.256.5Z" transform="translate(2851.273 -864.813)"/><path class="k" d="M-2786.848,924.012a5.232,5.232,0,0,0-5.226,5.226,5.232,5.232,0,0,0,5.226,5.226,5.232,5.232,0,0,0,5.226-5.226A5.232,5.232,0,0,0-2786.848,924.012Zm0,9.146a3.924,3.924,0,0,1-3.92-3.92,3.924,3.924,0,0,1,3.92-3.919,3.923,3.923,0,0,1,3.919,3.919A3.924,3.924,0,0,1-2786.848,933.158Z" transform="translate(2797.3 -918.786)"/></g><g transform="translate(-4101.493 789.835)"><rect class="o" width="24.149" height="7.459" rx="3.73" transform="translate(0 0)"/><g transform="translate(9.385 3.27)"><circle class="d" cx="0.683" cy="0.683" r="0.683"/><circle class="d" cx="0.683" cy="0.683" r="0.683" transform="translate(2.606)"/><path class="d" d="M-3665.378,1725.4a.683.683,0,0,1-.683.683.683.683,0,0,1-.683-.683.683.683,0,0,1,.683-.683A.683.683,0,0,1-3665.378,1725.4Z" transform="translate(3671.956 -1724.714)"/><path class="d" d="M-3635.857,1725.4a.683.683,0,0,1-.683.683.683.683,0,0,1-.683-.683.683.683,0,0,1,.683-.683A.683.683,0,0,1-3635.857,1725.4Z" transform="translate(3645.041 -1724.714)"/><path class="d" d="M-3606.336,1725.4a.683.683,0,0,1-.683.683.683.683,0,0,1-.683-.683.683.683,0,0,1,.683-.683A.683.683,0,0,1-3606.336,1725.4Z" transform="translate(3618.126 -1724.714)"/></g><g transform="translate(3.366 1.389)"><g transform="translate(0.405)"><path class="d" d="M-3787.062,1706.474h-.35v-1.906a.815.815,0,0,0-.813-.814.814.814,0,0,0-.814.814v1.906h-.35v-1.906a1.165,1.165,0,0,1,1.164-1.164,1.165,1.165,0,0,1,1.164,1.164Z" transform="translate(3789.39 -1703.404)"/></g><g transform="translate(0 2.222)"><rect class="d" width="3.137" height="2.012" rx="1.006"/></g><g transform="translate(1.306 2.704)"><path class="o" d="M-3778.652,1734.293a.262.262,0,0,1-.262.262.262.262,0,0,1-.262-.262.262.262,0,0,1,.262-.262A.262.262,0,0,1-3778.652,1734.293Z" transform="translate(3779.177 -1734.031)"/><g transform="translate(0.191 0.366)"><rect class="o" width="0.143" height="0.539"/></g></g></g></g><g transform="translate(-4030.265 726.496)"><path class="k" d="M-3013.867,974.868l-.758-.3a5.027,5.027,0,0,0-.408-.987l.321-.75a.364.364,0,0,0-.077-.4l-1.1-1.1a.366.366,0,0,0-.4-.077l-.75.322a4.993,4.993,0,0,0-.987-.409l-.3-.758a.362.362,0,0,0-.336-.228h-1.554a.362.362,0,0,0-.337.228l-.3.758a4.973,4.973,0,0,0-.987.409l-.75-.322a.366.366,0,0,0-.4.077l-1.1,1.1a.362.362,0,0,0-.077.4l.321.75a4.97,4.97,0,0,0-.409.987l-.758.3a.363.363,0,0,0-.228.336v1.554a.363.363,0,0,0,.228.336l.758.3a4.968,4.968,0,0,0,.409.987l-.321.75a.362.362,0,0,0,.077.4l1.1,1.1a.366.366,0,0,0,.4.077l.75-.321a4.98,4.98,0,0,0,.987.409l.3.758a.362.362,0,0,0,.337.228h1.554a.362.362,0,0,0,.336-.228l.3-.758a4.989,4.989,0,0,0,.987-.409l.75.321a.366.366,0,0,0,.4-.077l1.1-1.1a.363.363,0,0,0,.077-.4l-.321-.75a5.027,5.027,0,0,0,.408-.986l.758-.3a.363.363,0,0,0,.228-.336V975.2A.363.363,0,0,0-3013.867,974.868Zm-.5,1.645-.7.279a.362.362,0,0,0-.216.247,4.289,4.289,0,0,1-.471,1.137.362.362,0,0,0-.022.329l.3.69-.752.751-.69-.3a.366.366,0,0,0-.329.022,4.3,4.3,0,0,1-1.137.472.361.361,0,0,0-.248.217l-.279.7h-1.063l-.278-.7a.363.363,0,0,0-.248-.217,4.288,4.288,0,0,1-1.138-.472.366.366,0,0,0-.329-.022l-.69.3-.751-.751.3-.69a.363.363,0,0,0-.021-.329,4.274,4.274,0,0,1-.471-1.137.361.361,0,0,0-.217-.247l-.7-.279v-1.064l.7-.279a.361.361,0,0,0,.217-.247,4.272,4.272,0,0,1,.471-1.137.363.363,0,0,0,.021-.329l-.3-.69.751-.751.69.3a.366.366,0,0,0,.329-.022,4.288,4.288,0,0,1,1.138-.472.363.363,0,0,0,.248-.217l.278-.7h1.063l.279.7a.361.361,0,0,0,.248.217,4.3,4.3,0,0,1,1.137.472.366.366,0,0,0,.329.022l.69-.3.752.751-.3.69a.362.362,0,0,0,.022.329,4.287,4.287,0,0,1,.471,1.137.363.363,0,0,0,.216.247l.7.279Z" transform="translate(3025.242 -970.18)"/><path class="k" d="M-2989.483,1003.038a2.9,2.9,0,0,0-2.9,2.9,2.9,2.9,0,0,0,2.9,2.9,2.9,2.9,0,0,0,2.9-2.9A2.9,2.9,0,0,0-2989.483,1003.038Zm0,5.076a2.178,2.178,0,0,1-2.176-2.175,2.178,2.178,0,0,1,2.176-2.176,2.178,2.178,0,0,1,2.176,2.176A2.178,2.178,0,0,1-2989.483,1008.114Z" transform="translate(2995.285 -1000.137)"/></g><g transform="translate(-4079.512 755.273)"><path class="p" d="M-3570.161,1308.64c-.964,3.011-2.624,3.572-4.222,3.544-1.527-.027-3.187-.843-4.045-3.812a10.778,10.778,0,0,1-.123-4.212c.593-2.944,2.448-3.744,4.419-3.709,2.022.036,3.636.675,4.224,3.615A10.019,10.019,0,0,1-3570.161,1308.64Z" transform="translate(3579.09 -1300.07)"/><path class="q" d="M-3576.721,1329.931a2.515,2.515,0,0,0-1.338,2.355c-.024.781-.013,1.19-.713,1.419a7.157,7.157,0,0,1,.153-4.111Z" transform="translate(3579.342 -1326.642)"/><path class="q" d="M-3497.665,1331.859s1.028.468,1.021,2.3c0,.781-.3,1.526.607,1.685a7.716,7.716,0,0,0-.01-4.273Z" transform="translate(3505.208 -1328.448)"/><path class="q" d="M-3575.09,1299.158a4.137,4.137,0,0,0,4.048,1.4,35.709,35.709,0,0,0,4.405-1.275s-1.218-2.787-3.479-3.064C-3572.229,1295.961-3574.1,1296.421-3575.09,1299.158Z" transform="translate(3575.798 -1296.158)"/><path class="q" d="M-3578.359,1371.162s.257,2.631,1.625,3.221a3.377,3.377,0,0,1,4.036.071,3.169,3.169,0,0,0,2.216-2.8l.37.647s-.557,4.508-4.49,4.439c0,0-3.887.2-4.263-5.567Z" transform="translate(3579.24 -1364.541)"/><path class="p" d="M-3581.992,1364.9c.106.476-.05.916-.348.983s-.626-.266-.732-.742.05-.916.348-.983S-3582.1,1364.423-3581.992,1364.9Z" transform="translate(3583.106 -1358.147)"/><path class="p" d="M-3486.823,1368.779c-.123.472.018.917.313.994s.636-.243.758-.716-.018-.917-.314-.994S-3486.7,1368.307-3486.823,1368.779Z" transform="translate(3495.364 -1361.706)"/></g></g></svg>