<svg xmlns="http://www.w3.org/2000/svg" width="147.617" height="105.394" viewBox="0 0 147.617 105.394"><defs><style>.a{fill:#ebf9ff;}.b{fill:#f0f0f0;}.c{fill:#fff;}.d{fill:#0089e1;}.e{fill:#47c431;}.f{fill:#38c800;}.g{fill:#0082f5;}.h{fill:#e6e6e6;}.i{fill:#3cc64f;}.j{fill:#3487ea;}.k{opacity:0.29;}.l{fill:#bfbfbf;}.m{fill:#d3d3d3;}</style></defs><g transform="translate(-660.331 -771.166)"><g transform="translate(660.331 771.166)"><g transform="translate(0 1.247)"><path class="a" d="M790.176,836.678c1.72-10.23-1.154-21.09-6.3-30.225-2.1-3.724-4.633-7.323-8.149-9.752s-8.169-3.528-12.158-1.994c-2.972,1.144-5.26,3.572-8.069,5.072-5.814,3.1-13.061,1.818-19.041-.954s-11.258-6.893-17.241-9.657-13.234-4.031-19.039-.9c-6.76,3.644-9.427,11.984-10.157,19.628-.245,2.59-.391,5.336-1.852,7.489-2.2,3.242-6.521,4.027-10.2,5.375a27.486,27.486,0,0,0-17.423,21.811c-1.379,10.665,3.9,21.423,11.812,28.7s18.158,11.524,28.5,14.459a92.2,92.2,0,0,0,13.431,2.875c13.2,1.689,26.693-.572,39.251-4.975,7.014-2.461,13.865-5.632,19.673-10.27C784.145,864.63,790.148,850.607,790.176,836.678Z" transform="translate(-660.331 -786.435)"/></g><g transform="translate(3.151 0)"><path class="a" d="M823.572,807.6c-.761-10.346-6.133-20.212-13.3-27.867-2.92-3.12-6.24-6.012-10.233-7.536s-8.773-1.485-12.284.953c-2.614,1.817-4.26,4.72-6.632,6.845-4.91,4.4-12.253,4.87-18.722,3.6s-12.573-4.019-19.042-5.281-13.817-.769-18.707,3.649c-5.7,5.146-6.309,13.881-5.2,21.48.376,2.574.888,5.276-.019,7.714-1.366,3.676-5.377,5.462-8.631,7.646a27.493,27.493,0,0,0-11.74,25.324c1.2,10.687,8.881,19.882,18.3,25.079s20.377,6.877,31.124,7.27a92.775,92.775,0,0,0,13.729-.4c13.224-1.5,25.793-6.9,36.943-14.162,6.228-4.057,12.129-8.767,16.665-14.653C824.36,836.185,826.859,821.135,823.572,807.6Z" transform="translate(-698.906 -771.166)"/></g><rect class="b" width="90.98" height="64.182" rx="32.091" transform="translate(135.935 90.38) rotate(177.27)"/><rect class="c" width="83.854" height="60.955" transform="translate(131.895 80.504) rotate(177.27)"/><rect class="d" width="83.958" height="7.371" transform="translate(129.027 27.112) rotate(177.138)"/><rect class="c" width="11.975" height="2.786" rx="1.393" transform="translate(49.156 25.606) rotate(-2.862)"/><rect class="b" width="26.845" height="18.937" rx="9.469" transform="translate(113.564 37.078) rotate(-172.02)"/><rect class="c" width="24.742" height="17.986" transform="translate(113.071 33.849) rotate(-171.951)"/><rect class="e" width="24.742" height="2.172" transform="translate(115.13 18.333) rotate(-172.02)"/><rect class="c" width="3.529" height="0.821" rx="0.41" transform="translate(91.854 13.567) rotate(7.98)"/><g transform="translate(89.912 53.937)"><path class="f" d="M1761.957,1433.4l-.967-.989.576-.566.4.412.81-.828.566.575Z" transform="translate(-1760.99 -1431.43)"/></g><path class="g" d="M1739.054,1404.961l-2.184,2.308-.019.018a2.174,2.174,0,1,1,.4-2.451l.834-.839a3.313,3.313,0,1,0-.516,4.175.215.215,0,0,0,.04-.034l2.276-2.416Z" transform="translate(-1644.435 -1350.887)"/><path class="e" d="M1859.24,1038.5h3.716a2.51,2.51,0,0,1,2.51,2.51h0a2.51,2.51,0,0,1-2.51,2.51h-6.226v-2.51A2.51,2.51,0,0,1,1859.24,1038.5Z" transform="translate(-1758.997 -1016.662)"/><path class="c" d="M1927.791,1061.632a.528.528,0,1,1-.527.527.527.527,0,0,1,.527-.527m0-.1a.63.63,0,1,0,.629.629A.63.63,0,0,0,1927.791,1061.53Z" transform="translate(-1823.673 -1037.81)"/><circle class="c" cx="0.629" cy="0.629" r="0.629" transform="translate(101.574 23.72)"/><circle class="c" cx="0.629" cy="0.629" r="0.629" transform="translate(99.659 23.72)"/><rect class="h" width="14.158" height="1.158" transform="matrix(1, -0.025, 0.025, 1, 52.246, 69.5)"/><rect class="h" width="25.436" height="1.158" transform="matrix(1, -0.025, 0.025, 1, 52.3, 71.586)"/><rect class="h" width="23.828" height="1.158" transform="matrix(1, -0.025, 0.025, 1, 52.426, 76.57)"/><rect class="h" width="29.096" height="1.158" transform="matrix(1, -0.025, 0.025, 1, 52.48, 78.655)"/><rect class="h" width="23.828" height="1.158" transform="matrix(1, -0.025, 0.025, 1, 97.953, 74.633)"/><rect class="h" width="29.096" height="1.158" transform="matrix(1, -0.025, 0.025, 1, 98.006, 76.719)"/><rect class="b" width="26.471" height="18.673" rx="9.337" transform="translate(58.343 61.715) rotate(-172.02)"/><rect class="c" width="24.397" height="17.735" transform="translate(57.871 58.603) rotate(-171.951)"/><rect class="e" width="24.397" height="2.142" transform="translate(59.887 43.231) rotate(-172.02)"/><rect class="c" width="3.48" height="0.81" rx="0.405" transform="translate(36.935 38.529) rotate(7.98)"/><circle class="i" cx="3.005" cy="3.005" r="3.005" transform="translate(41.556 47.892)"/><path class="j" d="M1197.762,1339.236a1.956,1.956,0,0,0-1.956-1.956h-2.819a1.954,1.954,0,0,0-1.9,1.49,3.381,3.381,0,0,1,4.376,4.329h.34a1.956,1.956,0,0,0,1.956-1.956l1.213.7a.2.2,0,0,0,.3-.171V1338.7a.2.2,0,0,0-.3-.172Z" transform="translate(-1147.733 -1291.034)"/><path class="c" d="M1186.416,1401.59a.327.327,0,0,0-.313.409,1.652,1.652,0,0,0,3.2,0,.327.327,0,0,0-.312-.409Z" transform="translate(-1143.144 -1350.091)"/><g class="k" transform="translate(78.747 42.466)"><path class="l" d="M1646.328,1296.241l0,0a12.083,12.083,0,0,0-8.8-5.173h0a11.91,11.91,0,0,0-1.9-.031,12.044,12.044,0,0,0-4.48,1.163h0a12.028,12.028,0,0,0-2.539,1.644h0a12.078,12.078,0,1,0,16.991,17.049l.705.506,1.715-2.4-.8-.572a12.09,12.09,0,0,0-.88-12.191Zm-4.861,13.28a8.213,8.213,0,1,1-10.382-12.73c.064-.053.13-.106.2-.162a8.213,8.213,0,0,1,11.537,1.351q.17.216.327.439A8.214,8.214,0,0,1,1641.467,1309.521Z" transform="translate(-1624.305 -1291.008)"/><path class="m" d="M1901.966,1513.071l-2.542,3.494-9.234-7.215,1.114-1.554,1.136-1.586,1.1.787Z" transform="translate(-1868.47 -1488.63)"/></g><g transform="translate(118.767 76.801)"><path class="d" d="M2357.8,1800.75a2.742,2.742,0,0,0-2.614,2.859.657.657,0,0,0,1.313-.057,1.437,1.437,0,0,1,1.368-1.494.654.654,0,0,0-.063-1.307Z" transform="translate(-2335.502 -1793.444)"/><path class="d" d="M2140.9,1716.544a6.749,6.749,0,0,0-.528-.422h0l-2.515-1.952a6.366,6.366,0,0,0-3.3-1.023l.136.124-1.54-1.414h-.012a2.308,2.308,0,0,0-3.706,1.158,2.11,2.11,0,0,0-1.026-.282h-.183a2.146,2.146,0,0,0-1.127.381,2.31,2.31,0,0,0-3.793-.823h-.011l-1.408,1.542.125-.136a6.407,6.407,0,0,0-3.2,1.307l-2.332,2.171h0a5.148,5.148,0,0,0-.49.466,6.439,6.439,0,1,0,11.089,4.943,3.23,3.23,0,0,0,3.2-.14,6.439,6.439,0,1,0,10.622-5.9Zm-20.051,9.911a4.392,4.392,0,1,1,4.2-4.579A4.393,4.393,0,0,1,2120.851,1726.455Zm7.772-5.34a1.427,1.427,0,1,1,1.364-1.488A1.427,1.427,0,0,1,2128.623,1721.115Zm8.205,4.643a4.392,4.392,0,1,1,4.2-4.58,4.393,4.393,0,0,1-4.2,4.58Z" transform="translate(-2114.218 -1711.319)"/><path class="d" d="M2162.148,1809.29a2.742,2.742,0,0,0-2.618,2.859.657.657,0,1,0,1.313-.057,1.438,1.438,0,0,1,1.368-1.494.654.654,0,0,0-.063-1.307Z" transform="translate(-2155.826 -1801.287)"/></g></g></g></svg>