<svg xmlns="http://www.w3.org/2000/svg" xmlns:xlink="http://www.w3.org/1999/xlink" width="34" height="24.758" viewBox="0 0 34 24.758"><defs><style>.a{fill:url(#a);}</style><linearGradient id="a" x1="0.603" y1="1.234" x2="0.364" y2="-0.142" gradientUnits="objectBoundingBox"><stop offset="0" stop-color="#00e6f7"/><stop offset="0.057" stop-color="#00dcf7"/><stop offset="0.359" stop-color="#00aef8"/><stop offset="0.628" stop-color="#008dfa"/><stop offset="0.85" stop-color="#0079fa"/><stop offset="1" stop-color="#0072fb"/></linearGradient></defs><path class="a" d="M718.143,497.273l-3.682-6.421h7.527ZM746.556,499a9.252,9.252,0,0,1-1.578,5.544q-2.05,2.845-6.8,2.844H734.15v8.216h-2.984l-9.341-13.2,8.071-11.554h8.063q4.371,0,6.638,2.555A8.087,8.087,0,0,1,746.556,499Zm-6.675.073a3.026,3.026,0,0,0-.81-2.21,3.766,3.766,0,0,0-2.757-.828H734.15v6.167H736.3a3.674,3.674,0,0,0,2.875-.909A3.275,3.275,0,0,0,739.881,499.078ZM712.556,515.61H723.4l-5.3-8.053Z" transform="translate(-712.556 -490.852)"/></svg>