<svg xmlns="http://www.w3.org/2000/svg" xmlns:xlink="http://www.w3.org/1999/xlink" width="278" height="195" viewBox="0 0 278 195"><defs><style>.a{fill:#fff;}.b{clip-path:url(#a);}.c{opacity:0.537;}.d,.e{fill:#e3f6fd;}.e,.h{opacity:0.31;}.f{opacity:0.41;}.g,.h{fill:rgba(166,230,253,0.82);}.i{fill:#d7e7ee;}.j{fill:#69baf7;}.k{fill:#38c823;}.l{fill:#38c800;}.m{fill:#0082f5;}.n{fill:#1689e1;}.o,.q{fill:#adeca2;}.p,.r{fill:#47c431;}.p,.q{fill-rule:evenodd;}.s{fill:#4c81c3;}.t{fill:#52b952;}.u{fill:#515151;}.v{fill:#1582f5;}</style><clipPath id="a"><rect class="a" width="278" height="195" transform="translate(155.976 321.747)"/></clipPath></defs><g class="b" transform="translate(-155.976 -321.747)"><g transform="translate(64.266 313.247)"><g transform="translate(157.301 0) rotate(25.976)"><g class="c" transform="translate(20.652 63.105)"><path class="d" d="M289.023,148.707a74.278,74.278,0,0,0-.4-13.658c-2.6-21.278-14.368-41.353-31.69-55.514-6.181-5.054-13.212-9.578-17.233-16.248-6.774-11.231-6.261-24.136-14.666-35.225A70.845,70.845,0,0,0,190.529,3.857C149.293-9.4,91.559,12.185,96.758,58.28c.019.157.039.406.061.709.691,9.569-7.409,17.626-17.72,17.852C41.052,77.68,8.3,104.9,1.3,139.37a66.519,66.519,0,0,0,20.347,62.155c13.048,11.707,30.555,18.14,48.071,22.564,35.12,8.86,72.076,10.718,108.287,7.324,33.9-3.172,69.656-12.213,91.571-36.41A76.253,76.253,0,0,0,289.023,148.707Z" transform="translate(0 0)"/></g><g class="c" transform="matrix(0.407, -0.914, 0.914, 0.407, 0, 264.303)"><path class="d" d="M289.023,148.707a74.278,74.278,0,0,0-.4-13.658c-2.6-21.278-14.368-41.353-31.69-55.514-6.181-5.054-13.212-9.578-17.233-16.248-6.774-11.231-6.261-24.136-14.666-35.225A70.845,70.845,0,0,0,190.529,3.857C149.293-9.4,91.559,12.185,96.758,58.28c.019.157.039.406.061.709.691,9.569-7.409,17.626-17.72,17.852C41.052,77.68,8.3,104.9,1.3,139.37a66.519,66.519,0,0,0,20.347,62.155c13.048,11.707,30.555,18.14,48.071,22.564,35.12,8.86,72.076,10.718,108.287,7.324,33.9-3.172,69.656-12.213,91.571-36.41A76.253,76.253,0,0,0,289.023,148.707Z" transform="translate(0 0)"/></g><circle class="e" cx="7.126" cy="7.126" r="7.126" transform="translate(125.597 52.606) rotate(-22.5)"/><circle class="e" cx="3.676" cy="3.676" r="3.676" transform="translate(251.92 48.439)"/><circle class="e" cx="4.926" cy="4.926" r="4.926" transform="translate(85.941 72.412) rotate(-45)"/></g><g transform="translate(392.166 254.043) rotate(154.024)"><g class="f" transform="translate(0 0)"><path class="g" d="M273.127,81.57a73.6,73.6,0,0,1-.375,13.217c-2.456,20.591-13.577,40.017-29.947,53.719-5.841,4.89-12.486,9.269-16.286,15.723-6.4,10.868-5.916,23.356-13.86,34.087a66.982,66.982,0,0,1-32.609,23.426c-38.968,12.827-93.526-8.059-88.613-52.664.018-.152.037-.393.058-.688.653-9.264-7-17.055-16.743-17.275-35.954-.813-66.9-27.152-73.53-60.5C-3.036,69.159,3.94,45.644,20.456,30.466,32.786,19.132,49.33,12.908,65.882,8.627,99.07.054,133.994-1.746,168.213,1.538c32.03,3.071,65.823,11.813,86.533,35.234a74.707,74.707,0,0,1,18.381,44.8Z"/></g><circle class="h" cx="7.126" cy="7.126" r="7.126" transform="translate(104.233 222.804) rotate(22.5)"/><circle class="h" cx="3.676" cy="3.676" r="3.676" transform="translate(218.218 232.783)"/><circle class="h" cx="4.926" cy="4.926" r="4.926" transform="translate(68.487 209.196) rotate(45)"/></g></g><g transform="translate(165.213 330.924)"><ellipse class="i" cx="2.5" cy="2" rx="2.5" ry="2" transform="translate(143.763 104.824)"/><circle class="j" cx="2" cy="2" r="2" transform="translate(168.763 104.824)"/><ellipse class="k" cx="2" cy="1.5" rx="2" ry="1.5" transform="translate(86.763 104.824)"/><g transform="translate(115.328 95.356)"><g transform="translate(5.646 5.639)"><path class="l" d="M475.594,273.213l-1.781-1.821,1.061-1.043.741.76,1.492-1.527,1.043,1.061Z" transform="translate(-473.813 -269.582)"/></g><path class="m" d="M478.566,264.19l-4.85,5.126c-.015.013-.03.026-.043.04a4.828,4.828,0,1,1,.9-5.445l1.854-1.864a7.361,7.361,0,1,0-1.146,9.276.457.457,0,0,0,.089-.077l5.056-5.365Z" transform="translate(-462.846 -258.625)"/></g><g transform="translate(74.123 106.556)"><rect class="n" width="105.436" height="108.575"/></g><g transform="translate(12.268 108.558) rotate(-43)"><rect class="n" width="109.932" height="18.539"/><rect class="o" width="16.286" height="18.539" transform="translate(46.823 0)"/></g><g transform="translate(0 70.134) rotate(-43)"><g transform="translate(0 0)"><path class="p" d="M0,0V36.468H27.506V23.277C16.07,3.827,0,0,0,0Z" transform="translate(4.053 0)"/><path class="q" d="M29.976,11.9S17.294-.329,0,.007V26.382H31.562Z" transform="translate(0 10.086)"/></g><g transform="translate(43.905 0)"><path class="p" d="M27.506,0V36.468H0V23.277C11.439,3.827,27.506,0,27.506,0Z" transform="translate(0)"/><path class="q" d="M1.586,11.9S14.27-.329,31.562.007V26.382H0Z" transform="translate(0 10.086)"/></g><rect class="o" width="16.149" height="16.456" rx="3.582" transform="translate(29.588 20.012)"/></g><g transform="translate(144.003 72.574)"><circle class="r" cx="0.775" cy="0.775" r="0.775" transform="translate(12.787 4.557)"/><path class="r" d="M668.291,14.634H660.4a5.333,5.333,0,0,0-5.333,5.333V25.3h13.227a5.333,5.333,0,0,0,0-10.666Zm-7.8,6.671a1.337,1.337,0,1,1,1.337-1.337,1.337,1.337,0,0,1-1.337,1.337Zm4.067,0a1.337,1.337,0,1,1,1.337-1.337,1.337,1.337,0,0,1-1.337,1.337Zm4.067,0a1.337,1.337,0,1,1,1.337-1.337,1.337,1.337,0,0,1-1.337,1.337Z" transform="translate(-655.064 -14.634)"/></g><g transform="translate(80.141 72.75)"><path class="s" d="M77.384,384.5a3.6,3.6,0,0,0-3.6-3.6H68.6a3.6,3.6,0,0,0-3.5,2.744,6.228,6.228,0,0,1,8.061,7.975h.623a3.6,3.6,0,0,0,3.6-3.6l2.231,1.29a.367.367,0,0,0,.55-.318v-5.463a.367.367,0,0,0-.55-.318Z" transform="translate(-61.781 -380.9)"/><circle class="t" cx="5.531" cy="5.531" r="5.531" transform="translate(0 3.031)"/><path class="a" d="M53.372,539.1a.594.594,0,0,0-.576.745,3.039,3.039,0,0,0,5.892,0,.594.594,0,0,0-.576-.745Z" transform="translate(-50.214 -529.432)"/></g><g transform="translate(110.856 39.134)"><path class="u" d="M467.451,436.588a1.189,1.189,0,0,1-.781.312h-.028l-8.245,1.006c-.785-.018-1.42-.881-1.42-1.939V428.1c0-1.058.635-1.921,1.42-1.939l8.216,1h.056a1.189,1.189,0,0,1,.781.312l1.225.1a2.32,2.32,0,0,0-1.977-1.342l-8.219-1h-.056a2.657,2.657,0,0,0-2.372,2.866v7.865a2.657,2.657,0,0,0,2.372,2.866h.028l8.248-1.006a2.32,2.32,0,0,0,1.976-1.342Z" transform="translate(-456.052 -425.238)"/><g transform="translate(2.318 1.874)"><path class="r" d="M463.972,440.277l9.214-.781a1.709,1.709,0,0,0,1.482-1.866v-4.547a1.709,1.709,0,0,0-1.482-1.866l-9.214-.782a1.709,1.709,0,0,0-1.482,1.866v6.11a1.709,1.709,0,0,0,1.482,1.865Zm1.863-6.3a.77.77,0,0,1,.669-.841l4.151.352a.77.77,0,0,1,.669.841v2.048a.77.77,0,0,1-.669.841l-4.151.352a.77.77,0,0,1-.669-.841Z" transform="translate(-462.481 -430.436)"/></g></g><path class="l" d="M350.967,348.168a2.24,2.24,0,0,0-1.31-.094c-1.714.357-8.181,1.7-8.764,1.788a1.812,1.812,0,0,0-.906.572,1.678,1.678,0,0,0-.484,1.18c0,1.737.016,6.679.1,6.995.1.385,1.249.913,1.249.913l.048,2.354c2.98-2.4,8.362-.721,9.371-.529a1.137,1.137,0,0,0,.824-.139,1.331,1.331,0,0,0,.615-1.162c-.016-1.894-.073-9.36.052-10.617A1.153,1.153,0,0,0,350.967,348.168Zm-6.727,5.348a1.389,1.389,0,0,1,1.437-1.268,1.277,1.277,0,0,1,1.219,1.393,1.389,1.389,0,0,1-1.437,1.268,1.277,1.277,0,0,1-1.219-1.4Zm4.277,3.268a4.859,4.859,0,0,1-3.294,1.1,4.548,4.548,0,0,1-2.812-1.128.452.452,0,0,1-.033-.628,7.38,7.38,0,0,1,.9-.87.477.477,0,0,1,.607-.016,2.553,2.553,0,0,0,1.51.577,2.722,2.722,0,0,0,1.753-.54.441.441,0,0,1,.565.027c.279.263.639.613.871.884a.422.422,0,0,1-.063.594Z" transform="translate(-160.185 -304.346)"/><ellipse class="i" cx="2.5" cy="1.5" rx="2.5" ry="1.5" transform="translate(113.763 81.824)"/><circle class="j" cx="2.5" cy="2.5" r="2.5" transform="translate(98.763 92.824)"/><ellipse class="j" cx="2" cy="2.5" rx="2" ry="2.5" transform="translate(97.763 60.824)"/><ellipse class="r" cx="1.5" cy="2" rx="1.5" ry="2" transform="translate(70.763 94.824)"/><circle class="j" cx="1.5" cy="1.5" r="1.5" transform="translate(154.763 59.824)"/><circle class="v" cx="1.5" cy="1.5" r="1.5" transform="translate(172.763 68.824)"/><ellipse class="i" cx="2" cy="1" rx="2" ry="1" transform="translate(110.763 22.824)"/><ellipse class="o" cx="2.5" cy="2" rx="2.5" ry="2" transform="translate(122.763 -0.176)"/><ellipse class="j" cx="2.5" cy="1" rx="2.5" ry="1" transform="translate(82.763 22.824)"/><ellipse class="j" cx="1.5" cy="2" rx="1.5" ry="2" transform="translate(140.763 18.824)"/><ellipse class="n" cx="1.5" cy="2" rx="1.5" ry="2" transform="translate(140.763 45.824)"/><ellipse class="k" cx="2" cy="2.5" rx="2" ry="2.5" transform="translate(130.763 70.824)"/><circle class="s" cx="1.5" cy="1.5" r="1.5" transform="translate(118.763 57.824)"/><ellipse class="n" cx="2.5" cy="1.5" rx="2.5" ry="1.5" transform="translate(146.763 89.824)"/><ellipse class="j" cx="1.5" cy="2" rx="1.5" ry="2" transform="translate(181.763 96.824)"/><ellipse class="t" cx="2" cy="1.5" rx="2" ry="1.5" transform="translate(157.763 34.824)"/><rect class="o" width="16" height="109" transform="translate(118.763 106.824)"/></g></g></svg>