<svg xmlns="http://www.w3.org/2000/svg" width="147.319" height="107.847" viewBox="0 0 147.319 107.847"><defs><style>.a{fill:#ebf9ff;}.b{fill:#f0f0f0;}.c{fill:#fff;}.d{fill:#47c431;}.e{fill:#38c800;}.f{fill:#0082f5;}.g{fill:#e6e6e6;}.h{fill:#3cc64f;}.i{fill:#3487ea;}</style></defs><g transform="translate(-705.886 -759.047)"><g transform="translate(705.886 759.047)"><path class="a" d="M830.791,794.949c-1.095-10.428-6.833-20.225-14.315-27.733-3.049-3.06-6.494-5.877-10.576-7.292s-8.911-1.224-12.38,1.348c-2.585,1.918-4.156,4.9-6.486,7.124-4.821,4.6-12.228,5.3-18.8,4.225s-12.83-3.665-19.4-4.737-13.984-.337-18.787,4.277c-5.6,5.377-5.936,14.223-4.578,21.865.46,2.589,1.064,5.3.224,7.794-1.264,3.754-5.261,5.691-8.481,8a27.788,27.788,0,0,0-11.064,25.953c1.544,10.759,9.6,19.807,19.274,24.757s20.8,6.307,31.67,6.365a93.2,93.2,0,0,0,13.858-.836c13.313-1.928,25.844-7.78,36.877-15.47,6.164-4.294,11.978-9.238,16.378-15.327C832.482,823.8,834.533,808.519,830.791,794.949Z" transform="translate(-705.886 -759.047)"/></g><rect class="b" width="91.96" height="64.873" rx="32.437" transform="translate(839.523 851.401) rotate(177.27)"/><rect class="c" width="84.757" height="61.612" transform="translate(835.44 841.418) rotate(177.27)"/><rect class="d" width="84.757" height="7.441" transform="translate(832.857 787.31) rotate(177.27)"/><rect class="c" width="12.089" height="2.812" rx="1.406" transform="translate(751.48 786.074) rotate(-2.73)"/><rect class="b" width="27.709" height="19.547" rx="9.774" transform="translate(850.491 831.108) rotate(-172.02)"/><rect class="c" width="25.539" height="18.565" transform="translate(849.841 827.924) rotate(-172.02)"/><rect class="d" width="25.539" height="2.243" transform="translate(852.106 811.759) rotate(-172.02)"/><rect class="c" width="3.643" height="0.847" rx="0.424" transform="translate(828.081 806.841) rotate(7.98)"/><rect class="b" width="27.134" height="19.141" rx="9.571" transform="translate(816.911 797.524) rotate(-172.02)"/><rect class="c" width="25.009" height="18.179" transform="translate(816.275 794.406) rotate(-172.02)"/><rect class="d" width="25.009" height="2.196" transform="translate(818.494 778.578) rotate(-172.02)"/><rect class="c" width="3.567" height="0.83" rx="0.415" transform="translate(794.968 773.76) rotate(7.98)"/><g transform="translate(837.512 817.335)"><path class="e" d="M2301,1466.973l-.977-1,.581-.572.406.417.819-.838.572.582Z" transform="translate(-2300.02 -1464.98)"/></g><path class="f" d="M2278.205,1438.539l-2.206,2.332-.02.018a2.2,2.2,0,1,1,.413-2.477l.844-.848a3.349,3.349,0,1,0-.522,4.22.168.168,0,0,0,.041-.035l2.3-2.441Z" transform="translate(-1435.937 -621.064)"/><path class="d" d="M1859.267,1038.5h3.756a2.538,2.538,0,0,1,2.537,2.538h0a2.537,2.537,0,0,1-2.537,2.537h-6.293v-2.537A2.537,2.537,0,0,1,1859.267,1038.5Z" transform="translate(-1055.82 -256.379)"/><path class="c" d="M1927.8,1061.633a.533.533,0,1,1-.532.533.533.533,0,0,1,.532-.533m0-.1a.637.637,0,1,0,.636.636A.637.637,0,0,0,1927.8,1061.53Z" transform="translate(-1120.434 -277.508)"/><circle class="c" cx="0.636" cy="0.636" r="0.636" transform="translate(804.792 784.022)"/><circle class="c" cx="0.636" cy="0.636" r="0.636" transform="translate(802.856 784.022)"/><rect class="g" width="42.917" height="1.651" transform="matrix(1, -0.025, 0.025, 1, 754.583, 813.763)"/><rect class="g" width="31.831" height="1.651" transform="matrix(1, -0.025, 0.025, 1, 754.66, 816.736)"/><rect class="g" width="20.183" height="1.651" transform="matrix(1, -0.025, 0.025, 1, 754.825, 823.197)"/><rect class="g" width="36.261" height="1.651" transform="matrix(1, -0.025, 0.025, 1, 754.9, 826.17)"/><rect class="g" width="33.969" height="1.651" transform="matrix(1, -0.025, 0.025, 1, 755.081, 833.275)"/><rect class="g" width="41.48" height="1.651" transform="matrix(1, -0.025, 0.025, 1, 755.157, 836.247)"/><rect class="b" width="26.756" height="18.875" rx="9.437" transform="translate(761.095 822.427) rotate(-172.02)"/><rect class="c" width="24.66" height="17.926" transform="translate(760.468 819.353) rotate(-172.02)"/><rect class="d" width="24.66" height="2.165" transform="translate(762.656 803.744) rotate(-172.02)"/><rect class="c" width="3.517" height="0.818" rx="0.409" transform="translate(739.307 799.066) rotate(8.049)"/><circle class="h" cx="3.037" cy="3.037" r="3.037" transform="translate(744.128 808.455)"/><path class="i" d="M1197.834,1339.257a1.977,1.977,0,0,0-1.977-1.977h-2.85a1.975,1.975,0,0,0-1.917,1.506,3.418,3.418,0,0,1,4.423,4.376h.344a1.977,1.977,0,0,0,1.977-1.977l1.226.708a.2.2,0,0,0,.3-.173v-3a.2.2,0,0,0-.3-.173Z" transform="translate(-445.141 -530.489)"/><path class="c" d="M1186.42,1401.59a.33.33,0,0,0-.316.413,1.669,1.669,0,0,0,3.236,0,.33.33,0,0,0-.315-.413Z" transform="translate(-440.557 -589.489)"/></g></svg>