<svg xmlns="http://www.w3.org/2000/svg" width="138.404" height="110.695" viewBox="0 0 138.404 110.695"><defs><style>.a{fill:#ebf9ff;}.b{opacity:0.43;}.c{fill:#47c431;}.d{fill:#89caf7;}.e{fill:#d2ebff;}.f{fill:#1a2e35;}.g{fill:#0089e1;}.h{fill:#fff;}</style></defs><g transform="translate(-670.999 -536.055)"><g transform="translate(670.999 536.055)"><path class="a" d="M970.788,826.314c-2-3.98-6.627-13.291-10.88-13.39-21.324-.5-29.182,5.849-33.9,17.728-5.27,13.279-42.859,20.967-42.2,32.845s19.971,37.666,40.221,44.729c14.727,5.137,47.474-.7,49.452-6.29s41.54-65.691,24.4-67.791C987.193,832.839,973.655,832.022,970.788,826.314Z" transform="translate(-863.772 -806.816)"/><path class="a" d="M765.618,880.928a11.288,11.288,0,0,0-9.758-6.421c-21.458-.565-37.914,6.01-42.653,17.941-5.27,13.279-42.858,20.967-42.2,32.845s26.775,36.829,40.221,44.73c13.769,8.094,47.475-.7,49.452-6.29s41.54-65.7,24.4-67.794C774.282,894.622,768.454,886.651,765.618,880.928Z" transform="translate(-670.999 -862.599)"/><g class="b" transform="translate(15.538 22.238)"><path class="c" d="M857.949,993.595l-1.456-.583a9.619,9.619,0,0,0-.785-1.894l.617-1.441a.7.7,0,0,0-.148-.767l-2.112-2.11a.7.7,0,0,0-.767-.148l-1.44.617a9.583,9.583,0,0,0-1.9-.785l-.583-1.455a.7.7,0,0,0-.647-.438h-2.982a.7.7,0,0,0-.647.438l-.583,1.455a9.555,9.555,0,0,0-1.9.785l-1.44-.617a.7.7,0,0,0-.767.148l-2.11,2.11a.7.7,0,0,0-.148.767l.617,1.441a9.62,9.62,0,0,0-.785,1.894l-1.456.583a.7.7,0,0,0-.438.647v2.984a.7.7,0,0,0,.438.646l1.456.583a9.654,9.654,0,0,0,.785,1.9l-.617,1.44a.7.7,0,0,0,.148.767l2.111,2.11a.7.7,0,0,0,.767.148l1.44-.617a9.5,9.5,0,0,0,1.9.785l.583,1.456a.693.693,0,0,0,.647.438h2.984a.694.694,0,0,0,.647-.437l.583-1.456a9.542,9.542,0,0,0,1.9-.785l1.44.618a.7.7,0,0,0,.767-.149l2.11-2.11a.7.7,0,0,0,.148-.767l-.617-1.44a9.661,9.661,0,0,0,.785-1.9l1.456-.583a.7.7,0,0,0,.437-.646v-2.984A.7.7,0,0,0,857.949,993.595Zm-.956,3.16-1.339.536a.7.7,0,0,0-.416.471,8.19,8.19,0,0,1-.9,2.184.7.7,0,0,0-.041.631l.565,1.325-1.444,1.443-1.325-.565a.706.706,0,0,0-.631.042,8.281,8.281,0,0,1-2.184.906.692.692,0,0,0-.475.416l-.536,1.338h-2.038l-.533-1.337a.694.694,0,0,0-.475-.416,8.268,8.268,0,0,1-2.184-.906.706.706,0,0,0-.631-.042l-1.325.565-1.445-1.443.565-1.325a.7.7,0,0,0-.041-.631,8.187,8.187,0,0,1-.9-2.184.7.7,0,0,0-.417-.471l-1.339-.535v-2.043l1.339-.536a.7.7,0,0,0,.417-.471,8.177,8.177,0,0,1,.9-2.184.7.7,0,0,0,.041-.631l-.565-1.325,1.445-1.443,1.325.565a.7.7,0,0,0,.631-.042,8.229,8.229,0,0,1,2.184-.905.7.7,0,0,0,.475-.417l.535-1.338h2.041l.535,1.338a.7.7,0,0,0,.475.417,8.242,8.242,0,0,1,2.184.905.7.7,0,0,0,.632.042l1.325-.565,1.444,1.443-.565,1.325a.7.7,0,0,0,.041.631,8.177,8.177,0,0,1,.9,2.184.7.7,0,0,0,.416.47l1.339.537Z" transform="translate(-836.1 -984.59)"/><path class="c" d="M900.871,1043.79a5.571,5.571,0,1,0,5.571,5.572A5.572,5.572,0,0,0,900.871,1043.79Zm0,9.75a4.178,4.178,0,1,1,4.179-4.178A4.178,4.178,0,0,1,900.871,1053.54Z" transform="translate(-889.729 -1038.219)"/></g><g class="b" transform="translate(29.232 12.331)"><path class="c" d="M993.736,884.327l-.807-.324a5.329,5.329,0,0,0-.436-1.051l.343-.8a.388.388,0,0,0-.082-.425l-1.172-1.171a.39.39,0,0,0-.425-.083l-.8.343a5.249,5.249,0,0,0-1.052-.435l-.323-.808a.388.388,0,0,0-.36-.243h-1.656a.386.386,0,0,0-.359.243l-.323.808a5.252,5.252,0,0,0-1.053.435l-.8-.343a.39.39,0,0,0-.425.083l-1.172,1.171a.386.386,0,0,0-.082.425l.343.8A5.349,5.349,0,0,0,982.66,884l-.807.324a.388.388,0,0,0-.243.359v1.656a.388.388,0,0,0,.243.359l.807.324a5.356,5.356,0,0,0,.436,1.051l-.343.8a.386.386,0,0,0,.082.425l1.172,1.171a.389.389,0,0,0,.425.083l.8-.343a5.311,5.311,0,0,0,1.053.435l.323.808a.386.386,0,0,0,.359.243h1.656a.388.388,0,0,0,.36-.243l.323-.808a5.246,5.246,0,0,0,1.052-.435l.8.343a.39.39,0,0,0,.425-.083l1.17-1.172a.388.388,0,0,0,.082-.425l-.343-.8a5.33,5.33,0,0,0,.436-1.051l.807-.324a.388.388,0,0,0,.243-.359v-1.656A.388.388,0,0,0,993.736,884.327Zm-.531,1.754-.742.3a.386.386,0,0,0-.232.263,4.548,4.548,0,0,1-.5,1.212.391.391,0,0,0-.024.351l.315.735-.8.8-.736-.315a.387.387,0,0,0-.35.024,4.612,4.612,0,0,1-1.213.5.385.385,0,0,0-.264.231l-.3.744h-1.129l-.3-.744a.385.385,0,0,0-.265-.231,4.6,4.6,0,0,1-1.212-.5.387.387,0,0,0-.35-.024l-.736.315-.8-.8.315-.735a.389.389,0,0,0-.023-.351,4.568,4.568,0,0,1-.5-1.212.384.384,0,0,0-.231-.263l-.744-.3v-1.136l.744-.3a.384.384,0,0,0,.231-.264,4.569,4.569,0,0,1,.5-1.212.389.389,0,0,0,.023-.351l-.315-.735.8-.8.736.315a.387.387,0,0,0,.35-.024,4.6,4.6,0,0,1,1.212-.5.384.384,0,0,0,.265-.231l.3-.744h1.129l.3.744a.385.385,0,0,0,.264.231,4.579,4.579,0,0,1,1.213.5.387.387,0,0,0,.35.024l.736-.315.8.8-.315.735a.392.392,0,0,0,.024.351,4.544,4.544,0,0,1,.5,1.212.386.386,0,0,0,.231.263l.743.3Z" transform="translate(-981.61 -879.33)"/><path class="c" d="M1017.553,912.19a3.092,3.092,0,1,0,3.093,3.088A3.093,3.093,0,0,0,1017.553,912.19Zm0,5.411a2.322,2.322,0,1,1,1.643-.68A2.32,2.32,0,0,1,1017.553,917.6Z" transform="translate(-1011.369 -909.097)"/></g><path class="d" d="M992.4,1025.74c-15.9-3.347-28.017-15.113-35.04-34.022a98.467,98.467,0,0,1-5.709-26.46l-.273-5.391,42.513-15.027,42.513,15.027-.273,5.391a98.524,98.524,0,0,1-5.709,26.46c-7.023,18.909-19.14,30.675-35.04,34.022l-1.492.314Z" transform="translate(-924.993 -926.343)"/><path class="e" d="M1112.647,1051.742l-33.673-11.9h0l-33.674,11.9s2.281,45.1,33.674,51.711h0C1110.367,1096.842,1112.647,1051.742,1112.647,1051.742Z" transform="translate(-1010.074 -1012.403)"/><path class="f" d="M1352.813,1243.907h-1.944v-10.585a4.517,4.517,0,1,0-9.035,0v10.585h-1.944v-10.585a6.462,6.462,0,1,1,12.925,0Z" transform="translate(-1276.939 -1181.822)"/><rect class="g" width="17.418" height="11.175" rx="5.587" transform="translate(60.703 57.377)"/><path class="f" d="M1395.972,1387.856a1.456,1.456,0,1,1-1.456-1.456A1.456,1.456,0,0,1,1395.972,1387.856Z" transform="translate(-1325.105 -1326.347)"/><rect class="f" width="0.794" height="2.994" transform="translate(69.014 62.085)"/><rect class="c" width="25.744" height="7.952" rx="3.976" transform="translate(93.286 44.927)"/><circle class="h" cx="0.727" cy="0.727" r="0.727" transform="translate(103.292 48.414)"/><circle class="h" cx="0.727" cy="0.727" r="0.727" transform="translate(106.07 48.414)"/><path class="h" d="M1829.027,1263.448a.729.729,0,1,1-.729-.728A.729.729,0,0,1,1829.027,1263.448Z" transform="translate(-1718.723 -1214.307)"/><path class="h" d="M1858.547,1263.448a.727.727,0,1,1-.213-.515A.729.729,0,0,1,1858.547,1263.448Z" transform="translate(-1745.465 -1214.307)"/><path class="h" d="M1888.067,1263.448a.728.728,0,1,1-.213-.515A.728.728,0,0,1,1888.067,1263.448Z" transform="translate(-1772.207 -1214.307)"/><path class="h" d="M1707.357,1245h-.377v-2.032a.868.868,0,0,0-1.734,0V1245h-.376v-2.032a1.241,1.241,0,0,1,2.482,0Z" transform="translate(-1607.57 -1195.324)"/><rect class="h" width="3.344" height="2.146" rx="1.073" transform="translate(96.874 48.776)"/><path class="c" d="M1715.645,1272.282a.282.282,0,1,1-.282-.282A.282.282,0,0,1,1715.645,1272.282Z" transform="translate(-1616.82 -1222.714)"/><rect class="c" width="0.152" height="0.575" transform="translate(98.469 49.68)"/><path class="g" d="M967.866,1351.781v9.693a1.247,1.247,0,0,1-1.241,1.241h-17.71a1.248,1.248,0,0,1-1.245-1.241v-9.693a1.248,1.248,0,0,1,1.245-1.241h17.71A1.247,1.247,0,0,1,967.866,1351.781Z" transform="translate(-921.632 -1293.862)"/><rect class="a" width="20.196" height="3.1" transform="translate(26.038 60.226)"/><path class="a" d="M1092.882,1432.65h-5.026a.457.457,0,0,0-.457.457h0a.457.457,0,0,0,.457.457h5.026a.457.457,0,0,0,.456-.457h0A.456.456,0,0,0,1092.882,1432.65Z" transform="translate(-1048.212 -1368.245)"/><path class="a" d="M1119.261,1451.63h-2.284a.458.458,0,0,0-.457.457h0a.457.457,0,0,0,.457.456h2.284a.456.456,0,0,0,.457-.456h0A.457.457,0,0,0,1119.261,1451.63Z" transform="translate(-1074.591 -1385.438)"/><path class="c" d="M1220.409,748.339l-18.54-.039a.958.958,0,0,0-.957.953l-.021,10.506a.957.957,0,0,0,.951.957l18.54.039a.958.958,0,0,0,.957-.953l.022-10.506A.957.957,0,0,0,1220.409,748.339Z" transform="translate(-1151.021 -748.3)"/><path class="h" d="M1312.769,791.82h-8.412a.359.359,0,0,0-.358.358h0a.358.358,0,0,0,.358.358h8.412a.358.358,0,0,0,.358-.358h0A.358.358,0,0,0,1312.769,791.82Z" transform="translate(-1244.427 -787.724)"/><path class="h" d="M1310.875,810.56h-6.517a.359.359,0,0,0-.358.358h0a.358.358,0,0,0,.358.358h6.517a.359.359,0,0,0,.358-.358h0A.359.359,0,0,0,1310.875,810.56Z" transform="translate(-1244.427 -804.701)"/><rect class="h" width="6.339" height="0.715" rx="0.358" transform="translate(59.573 7.539)"/><path class="h" d="M1240.956,781.575a1.35,1.35,0,1,1-1.349-1.395A1.373,1.373,0,0,1,1240.956,781.575Z" transform="translate(-1184.872 -777.18)"/><path class="h" d="M1229.631,816.568l-.813-.264a2.912,2.912,0,0,0-1.8,0l-.819.265a1.224,1.224,0,0,0-.847,1.163v1.318h5.124v-1.318A1.223,1.223,0,0,0,1229.631,816.568Z" transform="translate(-1173.179 -809.775)"/></g></g></svg>